<svg width="120" height="60" viewBox="0 0 120 60" fill="none" xmlns="http://www.w3.org/2000/svg">
<path d="M70.4563 3.46017H49.0612C46.2413 3.46017 43.9553 5.74614 43.9553 8.56601V30.092C43.9553 32.9118 46.2413 35.1978 49.0612 35.1978H70.4563C73.2761 35.1978 75.5621 32.9118 75.5621 30.092V8.56601C75.5621 5.74614 73.2761 3.46017 70.4563 3.46017Z" fill="url(#paint0_linear_94_295)"/>
<path d="M59.9973 17.1232C60.8046 17.1232 61.4164 16.9504 61.8334 16.5966C62.2505 16.2428 62.4588 15.7275 62.4588 15.0429C62.4588 14.3668 62.2505 13.8533 61.8334 13.5022C61.4137 13.1422 60.8044 12.9623 59.9973 12.9623H57.1629V17.1234L59.9973 17.1232ZM60.1701 25.7221C61.1989 25.7221 61.9707 25.5073 62.4853 25.077C63.0087 24.6469 63.2704 23.9973 63.2704 23.1282C63.2704 22.2764 63.0131 21.6402 62.4986 21.219C61.984 20.7889 61.2081 20.5738 60.1703 20.5738H57.1631V25.7226H60.1703M64.9337 18.6515C66.0337 18.9675 66.8852 19.5514 67.4884 20.4027C68.0915 21.254 68.393 22.2989 68.3932 23.5368C68.3932 25.433 67.7456 26.8465 66.4507 27.7771C65.1557 28.7076 63.1867 29.1728 60.5432 29.1728H52.041V9.5126H59.7319C62.4904 9.5126 64.4864 9.92492 65.7191 10.7503C66.961 11.5754 67.5819 12.8968 67.5819 14.714C67.5819 15.671 67.3558 16.4872 66.9035 17.1632C66.4512 17.8303 65.7924 18.3236 64.9342 18.6513" fill="white"/>
<path d="M15.4271 45.76V51.1H18.5911C19.6511 51.1 20.4371 50.882 20.9451 50.446C21.4591 50.003 21.7151 49.329 21.7151 48.426C21.7151 47.526 21.4581 46.844 20.9451 46.414C20.4371 45.978 19.6531 45.76 18.5911 45.76H15.4271ZM15.4271 39.764V44.159H18.3471C19.3111 44.159 20.0271 43.979 20.4951 43.622C20.9701 43.257 21.2081 42.704 21.2081 41.962C21.2081 41.226 20.9701 40.676 20.4951 40.312C20.0201 39.948 19.3101 39.765 18.3471 39.765L15.4271 39.764ZM13.4541 38.145H18.4941C19.9981 38.145 21.1571 38.458 21.9711 39.083C22.7851 39.708 23.1911 40.597 23.1911 41.749C23.1911 42.641 22.9831 43.351 22.5661 43.879C22.1491 44.407 21.5361 44.735 20.7301 44.865C21.7001 45.073 22.4521 45.51 22.9861 46.165C23.5261 46.823 23.7861 47.645 23.7861 48.635C23.7861 49.937 23.3431 50.943 22.4581 51.653C21.5731 52.363 20.3131 52.717 18.6781 52.717H13.4441V38.14" fill="white"/>
<path d="M31.225 43.044C30.7801 43.0291 30.3385 43.1248 29.9397 43.3225C29.5409 43.5202 29.1974 43.8139 28.94 44.177C28.38 44.927 28.1 45.954 28.1 47.263C28.1 48.572 28.377 49.603 28.93 50.359C29.49 51.109 30.255 51.482 31.225 51.482C31.6684 51.4962 32.1083 51.4001 32.5054 51.2024C32.9024 51.0046 33.2442 50.7114 33.5 50.349C34.06 49.594 34.34 48.565 34.34 47.263C34.34 45.967 34.06 44.943 33.5 44.187C32.94 43.425 32.182 43.044 31.225 43.044M31.225 41.521C32.787 41.521 34.025 42.029 34.907 43.044C35.789 44.059 36.245 45.466 36.245 47.264C36.245 49.062 35.799 50.461 34.907 51.484C34.015 52.5 32.787 53.007 31.225 53.007C29.655 53.007 28.425 52.499 27.525 51.484C26.64 50.462 26.197 49.056 26.197 47.264C26.197 45.467 26.64 44.061 27.525 43.044C28.417 42.028 29.647 41.521 31.225 41.521" fill="white"/>
<path d="M43.352 43.044C42.9071 43.0291 42.4655 43.1248 42.0667 43.3225C41.6679 43.5202 41.3244 43.8139 41.067 44.177C40.507 44.927 40.227 45.954 40.227 47.263C40.227 48.572 40.504 49.603 41.057 50.359C41.617 51.109 42.382 51.482 43.352 51.482C43.7953 51.4962 44.2353 51.4001 44.6323 51.2024C45.0294 51.0046 45.3712 50.7114 45.627 50.349C46.187 49.594 46.467 48.565 46.467 47.263C46.467 45.967 46.187 44.943 45.627 44.187C45.067 43.425 44.309 43.044 43.352 43.044M43.352 41.521C44.914 41.521 46.152 42.029 47.034 43.044C47.916 44.059 48.372 45.466 48.372 47.264C48.372 49.062 47.926 50.461 47.034 51.484C46.142 52.5 44.914 53.007 43.352 53.007C41.782 53.007 40.552 52.499 39.652 51.484C38.767 50.462 38.324 49.056 38.324 47.264C38.324 45.467 38.767 44.061 39.652 43.044C40.544 42.028 41.774 41.521 43.352 41.521" fill="white"/>
<path d="M53.0171 38.678V41.783H56.7171V43.179H53.0171V49.117C53.0171 50.009 53.1371 50.582 53.3771 50.837C53.6241 51.091 54.1221 51.217 54.8711 51.217H56.7171V52.721H54.8701C53.4831 52.721 52.5261 52.464 52.0001 51.951C51.4731 51.431 51.2001 50.486 51.2001 49.119V43.179H49.8821V41.783H51.2001V38.68H53.0071M65.9531 42.107V43.807C65.4512 43.5488 64.9201 43.352 64.3711 43.221C63.8241 43.091 63.2581 43.026 62.6711 43.026C61.7791 43.026 61.1081 43.163 60.6591 43.426C60.2161 43.699 59.9951 44.11 59.9951 44.656C59.9951 45.073 60.1551 45.401 60.4751 45.642C60.7951 45.876 61.4351 46.102 62.3991 46.316L63.0141 46.453C64.2901 46.726 65.1941 47.113 65.7291 47.615C66.2691 48.11 66.5291 48.803 66.5291 49.695C66.5435 50.1648 66.4414 50.6309 66.2321 51.0517C66.0227 51.4726 65.7125 51.8351 65.3291 52.107C64.5291 52.699 63.4251 53.007 62.0291 53.007C61.4431 53.007 60.8311 52.947 60.1931 52.831C59.5611 52.731 58.8931 52.551 58.1911 52.323V50.468C58.8551 50.813 59.5091 51.073 60.1541 51.248C60.7785 51.4147 61.4218 51.5 62.0681 51.502C62.9141 51.502 63.5651 51.359 64.0211 51.072C64.4771 50.779 64.7051 50.369 64.7051 49.842C64.7051 49.354 64.5391 48.979 64.2071 48.719C63.8811 48.459 63.1621 48.219 62.0491 47.967L61.4241 47.821C60.3111 47.587 59.5071 47.229 59.0121 46.747C58.5171 46.259 58.2701 45.591 58.2701 44.745C58.2701 43.715 58.6351 42.922 59.3641 42.362C60.0931 41.802 61.1281 41.522 62.4691 41.522C63.097 41.519 63.7242 41.5678 64.3441 41.668C64.8984 41.7569 65.4417 41.9041 65.9651 42.107M71.0981 38.677V41.782H74.7981V43.178H71.0981V49.116C71.0981 50.008 71.2181 50.581 71.4581 50.836C71.7051 51.09 72.2031 51.216 72.9521 51.216H74.8001V52.72H72.9541C71.5671 52.72 70.6101 52.463 70.0841 51.95C69.5571 51.43 69.2841 50.485 69.2841 49.118V43.178H67.9661V41.782H69.2841V38.68H71.1001M83.4001 43.465C83.1935 43.346 82.9694 43.2603 82.7361 43.211C82.4808 43.1493 82.2187 43.1197 81.9561 43.123C80.9401 43.123 80.1591 43.455 79.6121 44.119C79.0721 44.777 78.8121 45.724 78.8121 46.961V52.723H77.0051V41.783H78.8121V43.483C79.1901 42.819 79.6821 42.327 80.2871 42.008C80.8921 41.682 81.6271 41.52 82.4941 41.52C82.6312 41.5209 82.7682 41.5306 82.9041 41.549L83.4021 41.617L83.4121 43.463M90.1861 47.223C88.7341 47.223 87.7281 47.389 87.1681 47.721C86.6081 48.053 86.3281 48.619 86.3281 49.421C86.3281 50.059 86.5361 50.567 86.9531 50.944C87.3761 51.314 87.9491 51.501 88.6731 51.501C89.6691 51.501 90.4671 51.149 91.0661 50.446C91.6711 49.746 91.9741 48.796 91.9741 47.624V47.224H90.1871M93.7711 46.482V52.722H91.9741V51.062C91.5741 51.726 91.0541 52.218 90.4411 52.537C89.8291 52.849 89.0811 53.007 88.1951 53.007C87.0751 53.007 86.1831 52.695 85.5191 52.07C84.8611 51.438 84.5331 50.595 84.5331 49.54C84.5331 48.31 84.9331 47.382 85.7631 46.757C86.5931 46.132 87.8201 45.82 89.4631 45.82H91.9831V45.644C91.9831 44.817 91.7101 44.179 91.1631 43.73C90.6231 43.274 89.8611 43.046 88.8781 43.046C88.2531 43.046 87.6441 43.121 87.0521 43.271C86.4561 43.4222 85.8818 43.6487 85.3431 43.945V42.285C86.0011 42.031 86.6391 41.842 87.2571 41.719C87.851 41.5915 88.4566 41.5262 89.0641 41.524C90.6461 41.524 91.8281 41.924 92.6091 42.754C93.3901 43.584 93.7811 44.818 93.7811 46.484M99.1311 51.08V56.88H97.3241V41.784H99.1311V43.444C99.5091 42.794 99.9841 42.311 100.557 41.999C101.137 41.679 101.827 41.519 102.627 41.519C103.253 41.5046 103.873 41.6408 104.436 41.9161C104.998 42.1914 105.486 42.5978 105.859 43.101C106.692 44.156 107.109 45.541 107.109 47.261C107.109 48.981 106.692 50.366 105.859 51.421C105.486 51.9242 104.998 52.3306 104.436 52.6059C103.873 52.8812 103.253 53.0174 102.627 53.003C101.827 53.003 101.127 52.847 100.557 52.533C99.9841 52.213 99.5091 51.729 99.1311 51.078M105.244 47.26C105.244 45.938 104.971 44.903 104.424 44.155C103.884 43.4 103.138 43.022 102.188 43.022C101.749 43.0073 101.313 43.1033 100.92 43.3013C100.528 43.4993 100.191 43.7929 99.9421 44.155C99.4021 44.905 99.1421 45.939 99.1421 47.26C99.1421 48.581 99.4121 49.62 99.9421 50.375C100.489 51.125 101.238 51.498 102.188 51.498C103.138 51.498 103.884 51.124 104.424 50.375C104.971 49.62 105.244 48.581 105.244 47.26Z" fill="white"/>
<defs>
<linearGradient id="paint0_linear_94_295" x1="45.7787" y1="33.552" x2="73.617" y2="5.22747" gradientUnits="userSpaceOnUse">
<stop stop-color="#070135"/>
<stop offset="1" stop-color="#612D50"/>
</linearGradient>
</defs>
</svg>
