<?xml version="1.0" encoding="UTF-8"?>
<svg id="Layer_2" data-name="Layer 2" xmlns="http://www.w3.org/2000/svg" viewBox="0 0 363.29 109.54">
  <defs>
    <style>
      .cls-1 {
        fill: #323232;
      }

      .cls-1, .cls-2, .cls-3, .cls-4, .cls-5 {
        stroke-width: 0px;
      }

      .cls-2 {
        fill: #cf0101;
      }

      .cls-3 {
        fill: #333;
      }

      .cls-4 {
        fill: #313131;
      }

      .cls-5 {
        fill: #fdfafa;
      }
    </style>
  </defs>
  <g id="Layer_1-2" data-name="Layer 1">
    <g>
      <path class="cls-2" d="m0,0h111.74v109.54H0V0Zm56.65,48.51c.24-.26.38-.43.53-.58,7.32-7.29,14.65-14.57,21.94-21.89.38-.38.65-1.28.46-1.72-.19-.45-1-.87-1.55-.9-2.28-.1-4.58-.09-6.86,0-.58.02-1.3.28-1.7.68-7.78,7.75-15.53,15.54-23.29,23.31-1.7,1.71-3.43,3.39-5.46,5.38v-2.19c0-8.21,0-16.42,0-24.63,0-2.27-.3-2.58-2.5-2.59-1.25,0-2.51,0-3.76,0-2.07,0-2.44.38-2.44,2.5,0,13.7,0,27.4,0,41.1,0,5.71,0,11.42,0,17.13,0,1.65.58,2.22,2.24,2.24,1.09.01,2.18,0,3.27,0,3,0,3.19-.18,3.19-3.1,0-5.87-.01-11.74.02-17.62,0-.61.08-1.41.46-1.79,3.01-3.05,6.1-6.02,9.22-9.08.35.45.63.77.87,1.12,6.57,9.73,13.14,19.46,19.68,29.21.56.83,1.11,1.33,2.21,1.28,2.12-.09,4.25.04,6.37-.07.56-.03,1.31-.49,1.58-.97.22-.4.05-1.24-.26-1.67-6.11-8.92-12.27-17.82-18.42-26.72-1.94-2.81-3.88-5.63-5.81-8.44Z"/>
      <path class="cls-3" d="m161.1,54.33c-3.1,3.27-6.04,6.32-8.9,9.45-.37.41-.5,1.17-.5,1.77-.04,6.09-.02,12.18-.02,18.26,0,2.01-.5,2.52-2.46,2.53-1.25,0-2.51,0-3.76,0-2.02,0-2.5-.49-2.5-2.48,0-12.72,0-25.44,0-38.16,0-6.63,0-13.26,0-19.89,0-1.97.43-2.4,2.37-2.4,1.31,0,2.61,0,3.92,0,2.03,0,2.44.43,2.44,2.51,0,8.48,0,16.96,0,25.44v1.46c.8-.78,1.35-1.3,1.88-1.83,8.84-8.85,17.67-17.72,26.55-26.53.57-.57,1.55-.96,2.36-1,2.55-.13,5.11-.05,7.59-.05,1,1.26.64,2.12-.38,3.12-7.1,6.97-14.13,14.02-21.22,21-.81.79-.78,1.28-.17,2.16,7.86,11.28,15.68,22.58,23.47,33.91.33.48.5,1.39.26,1.86-.23.46-1.06.83-1.64.86-1.96.11-3.92-.04-5.88.07-1.24.07-1.96-.36-2.65-1.38-6.5-9.7-13.06-19.37-19.61-29.05-.24-.36-.5-.7-1.14-1.61Z"/>
      <path class="cls-4" d="m208.07,65.87c.39,4.49,1.4,8.4,5.05,11.11,2.14,1.59,4.63,2.14,7.22,2.21,4.41.12,8.66-.71,12.77-2.3,1.88-.73,2.76-.11,2.78,1.89,0,.49,0,.98,0,1.47,0,3.82.03,3.92-3.68,5.11-6.53,2.1-13.15,2.54-19.76.4-4.47-1.45-8.12-4.23-10.2-8.42-4.75-9.57-4.59-19.28.76-28.53,6.14-10.62,21.24-10.64,28.16-4.44,4.17,3.74,6.04,8.54,6.47,13.98.14,1.73.07,3.48.07,5.22,0,1.8-.51,2.3-2.33,2.3-8.44,0-16.89,0-25.33,0-.59,0-1.18,0-1.99,0Zm.32-7.62h20.04c-.14-6.19-3.24-9.97-8.33-10.3-6.55-.42-10.59,3.1-11.71,10.3Z"/>
      <path class="cls-1" d="m311.08,81.35c-2.29,2.24-4.52,4.11-7.47,4.87-4.93,1.27-9.85,1.45-14.52-.81-5.25-2.54-7.03-7.18-6.84-12.68.18-5.42,3.01-9.16,7.88-11.4,4.08-1.88,8.45-2.43,12.87-2.63,2.38-.11,4.78-.02,7.07-.02,1.72-6.33-1.55-10.81-7.64-10.71-1.99.03-4,.41-5.94.89-1.73.43-3.37,1.2-5.04,1.86-1.22.49-2.09.23-2.61-1.01-.56-1.35-1.19-2.69-1.65-4.07-.13-.39.12-1.21.43-1.37,6.57-3.43,13.51-4.8,20.85-3.26,6.19,1.3,9.6,5.17,10.32,11.43.15,1.29.25,2.6.25,3.9.02,9.18.01,18.37,0,27.55,0,1.88-.54,2.43-2.4,2.43-1.41,0-3.21.47-4.13-.21-.88-.65-.84-2.53-1.2-3.87-.06-.21-.11-.41-.24-.9Zm-.85-16.06c-1.4,0-2.66-.14-3.88.03-3.59.48-7.24.83-10.74,1.72-2.77.7-4.21,2.94-4.34,5.87-.11,2.57.55,4.73,3.09,5.93,4.33,2.06,11.24.19,13.96-3.71,2.08-2.98,1.98-6.32,1.91-9.83Z"/>
      <path class="cls-1" d="m359.5,50.88c-4.53-1.82-8.92-3.29-13.66-2.9-1.5.12-3.06.36-4.43.93-3.09,1.28-3.53,4.93-.68,6.69,2.47,1.53,5.23,2.62,7.94,3.74,3.66,1.52,7.49,2.73,10.58,5.34,5.96,5.05,5.21,15.04-1.38,19.26-2.88,1.84-6.06,2.72-9.39,2.98-5.64.44-11.21.15-16.48-2.24-1.02-.46-1.5-1.05-1.39-2.22.12-1.35.01-2.72.03-4.07.02-1.65,1.04-2.3,2.56-1.61,5.07,2.27,10.31,3.44,15.88,2.49,1.01-.17,2.01-.51,2.94-.93,3.33-1.51,3.88-5.74.85-7.8-2.13-1.45-4.57-2.48-6.93-3.57-2.86-1.32-5.87-2.34-8.66-3.78-4.4-2.26-6.97-5.78-6.74-10.98.22-4.96,2.84-8.23,7.25-10.11,6.41-2.73,12.97-2.21,19.52-.47,1.26.33,2.58.65,3.67,1.31.59.36,1.18,1.57,1,2.15-.61,1.95-1.57,3.79-2.45,5.8Z"/>
      <path class="cls-3" d="m276.75,40.95c-.33,2.24-.52,4.41-1.05,6.5-.14.55-1.33,1.13-2.07,1.17-1.77.09-3.61-.42-5.34-.16-4.79.72-8.95,5.27-9.63,10.26-.2,1.45-.29,2.92-.3,4.39-.03,6.96-.01,13.92-.02,20.88,0,1.78-.55,2.34-2.3,2.35-1.42.01-2.83,0-4.25,0-1.45.01-2.21-.62-2.21-2.15.01-13.59,0-27.18.01-40.78,0-1.61.65-2.25,2.27-2.26,1.68-.02,3.36,0,5.18,0,.21,1.93.41,3.75.66,6.11,4.91-6.75,11.39-8.05,19.05-6.31Z"/>
      <path class="cls-5" d="m56.65,48.51c1.94,2.81,3.87,5.63,5.81,8.44,6.15,8.9,12.3,17.79,18.42,26.72.3.44.48,1.28.26,1.67-.27.48-1.02.94-1.58.97-2.12.11-4.25-.02-6.37.07-1.1.05-1.65-.44-2.21-1.28-6.54-9.75-13.12-19.48-19.68-29.21-.24-.35-.52-.67-.87-1.12-3.13,3.05-6.21,6.03-9.22,9.08-.38.38-.45,1.18-.46,1.79-.03,5.87-.02,11.74-.02,17.62,0,2.92-.19,3.1-3.19,3.1-1.09,0-2.18.01-3.27,0-1.66-.02-2.24-.59-2.24-2.24,0-5.71,0-11.42,0-17.13,0-13.7,0-27.4,0-41.1,0-2.12.37-2.49,2.44-2.5,1.25,0,2.51,0,3.76,0,2.2,0,2.5.31,2.5,2.59,0,8.21,0,16.42,0,24.63v2.19c2.02-1.99,3.75-3.68,5.46-5.38,7.76-7.77,15.5-15.56,23.29-23.31.4-.4,1.12-.66,1.7-.68,2.29-.08,4.58-.09,6.86,0,.55.02,1.36.45,1.55.9.19.45-.08,1.34-.46,1.72-7.29,7.33-14.62,14.6-21.94,21.89-.15.15-.29.32-.53.58Z"/>
    </g>
  </g>
</svg>