<svg width="181" height="50" viewBox="0 0 181 50" fill="none" xmlns="http://www.w3.org/2000/svg">
<path d="M24.9902 48.8633C18.6164 48.8633 12.6238 46.3809 8.11641 41.8738C3.60898 37.3668 1.12695 31.3742 1.12695 25C1.12695 18.6258 3.60937 12.6332 8.11641 8.12617C12.6234 3.61914 18.616 1.13672 24.9902 1.13672C31.3645 1.13672 37.357 3.61914 41.8645 8.12617C46.3719 12.6332 48.8535 18.6258 48.8535 25C48.8535 31.3742 46.3711 37.3668 41.8641 41.8742C37.357 46.3816 31.3645 48.8633 24.9902 48.8633Z" fill="white"/>
<path opacity="0.9" d="M24.9897 24.9156H48.853M24.9897 24.9156L41.8636 8.04221M24.9897 24.9156V1.05237M24.9897 24.9156L8.11631 8.04221M24.9897 24.9156H1.12646M24.9897 24.9156L8.11631 41.7895M24.9897 24.9156V48.7789M24.9897 24.9156L41.8636 41.7895" stroke="#858585" stroke-width="0.856" stroke-miterlimit="7.976" stroke-linecap="round" stroke-linejoin="round" stroke-dasharray="0.41 0.81"/>
<path opacity="0.9" d="M27.642 24.9156L27.5631 24.2738L27.3314 23.6711L26.9607 23.1418L26.4725 22.7179L25.8967 22.4246L25.2678 22.2789L24.6217 22.2906L23.9971 22.4582L23.4318 22.7711L22.9596 23.2117L22.608 23.7539L22.3975 24.3652L22.3408 25.0093L22.442 25.6476L22.6943 26.2425L23.0826 26.7586L23.585 27.1652L24.1709 27.4379L24.8049 27.5613L25.4506 27.5277L26.0686 27.3386L26.6225 27.0058L27.0795 26.5488L27.4119 25.9953L27.601 25.3773L27.642 24.9156Z" stroke="#818181" stroke-width="0.856" stroke-miterlimit="199.409" stroke-linecap="square" stroke-linejoin="round" stroke-dasharray="0.41 0.81"/>
<path opacity="0.9" d="M32.9446 24.9156L32.8673 23.809L32.6368 22.7235L32.2567 21.6809L31.736 20.7008L31.0837 19.8027L30.313 19.0043L29.4388 18.3207L28.4774 17.766L27.4489 17.3504L26.3716 17.0817L25.2681 16.9656L24.1587 17.0043L23.0661 17.1973L22.0106 17.5399L21.013 18.0266L20.0927 18.6469L19.2681 19.3895L18.5548 20.2399L17.9665 21.1805L17.5153 22.1945L17.2099 23.261L17.0552 24.3602V25.4703L17.2099 26.5695L17.5153 27.636L17.9665 28.65L18.5548 29.5906L19.2681 30.441L20.0927 31.184L21.013 31.8043L22.0106 32.2906L23.0661 32.6332L24.1591 32.8262L25.2685 32.8652L26.3716 32.7488L27.4489 32.4805L28.4774 32.0645L29.4388 31.5098L30.313 30.8262L31.0837 30.0277L31.736 29.1297L32.2567 28.1492L32.6364 27.107L32.8673 26.0215L32.9446 24.9156Z" stroke="#818181" stroke-width="0.856" stroke-miterlimit="199.409" stroke-linecap="square" stroke-linejoin="round" stroke-dasharray="0.41 0.81"/>
<path opacity="0.9" d="M38.2476 24.9156L38.1753 23.5297L37.9585 22.159L37.5991 20.8192L37.1022 19.5234L36.4722 18.2867L35.7163 17.1234L34.8429 16.0445L33.8616 15.0637L32.7831 14.1902L31.6194 13.4344L30.3831 12.8043L29.0874 12.307L27.7476 11.9481L26.3765 11.7313L24.9905 11.659L23.6046 11.7313L22.2343 11.9481L20.8944 12.3074L19.5983 12.8043L18.362 13.4344L17.1983 14.1902L16.1198 15.0637L15.1386 16.0445L14.2651 17.1234L13.5093 18.2867L12.8792 19.5234L12.3819 20.8192L12.0229 22.159L11.8062 23.5297L11.7339 24.9156L11.8062 26.3016L12.0229 27.6723L12.3823 29.0121L12.8792 30.3078L13.5093 31.5445L14.2651 32.7078L15.1386 33.7867L16.1198 34.7676L17.1983 35.641L18.362 36.3969L19.5983 37.0274L20.894 37.5242L22.2339 37.8836L23.605 38.1004L24.9905 38.1727L26.3769 38.1004L27.7472 37.8832L29.087 37.5242L30.3831 37.0274L31.6194 36.3969L32.7831 35.641L33.8616 34.7676L34.8429 33.7867L35.7163 32.7078L36.4722 31.5445L37.1022 30.3078L37.5991 29.0121L37.9585 27.6723L38.1753 26.3016L38.2476 24.9156Z" stroke="#818181" stroke-width="0.856" stroke-miterlimit="199.409" stroke-linecap="square" stroke-linejoin="round" stroke-dasharray="0.41 0.81"/>
<path opacity="0.9" d="M43.5503 24.9156L43.4487 22.9758L43.144 21.0574L42.6417 19.1808L41.9456 17.3676L41.064 15.6363L40.0058 14.007L38.7831 12.4969L37.4097 11.123L35.8995 9.90038L34.2702 8.84217L32.539 7.96092L30.7257 7.26522L28.8491 6.76249L26.9304 6.45819L24.9905 6.35663L23.0507 6.45819L21.1327 6.76249L19.2558 7.26522L17.4425 7.96092L15.7112 8.84257L14.0823 9.90116L12.5718 11.1238L11.1979 12.4973L9.97529 14.0074L8.91748 15.6363L8.03584 17.368L7.33975 19.1812L6.83701 21.0578L6.53311 22.9762L6.43115 24.916L6.53271 26.8558L6.83701 28.7742L7.33975 30.6512L8.03584 32.4644L8.91748 34.1953L9.97568 35.8246L11.1983 37.3348L12.5718 38.7086L14.0819 39.9312L15.7112 40.9894L17.4425 41.8711L19.2558 42.5668L21.1323 43.0699L23.0507 43.3738L24.9905 43.4754L26.9304 43.3738L28.8491 43.0699L30.7257 42.5668L32.539 41.8711L34.2702 40.9894L35.8991 39.9308L37.4097 38.7086L38.7831 37.3348L40.0058 35.8246L41.0644 34.1957L41.9456 32.4644L42.6417 30.6512L43.1444 28.7742L43.4483 26.8562L43.5503 24.9156Z" stroke="#818181" stroke-width="0.856" stroke-miterlimit="199.409" stroke-linecap="square" stroke-linejoin="round" stroke-dasharray="0.41 0.81"/>
<path d="M25 49.2188C18.5313 49.2188 12.4492 46.6996 7.875 42.1254C3.30078 37.5512 0.78125 31.4691 0.78125 25C0.78125 18.5309 3.30039 12.4492 7.87461 7.87461C12.4488 3.3 18.5309 0.78125 25 0.78125C31.4691 0.78125 37.5512 3.30039 42.1254 7.87461C46.6996 12.4488 49.2188 18.5309 49.2188 25C49.2188 31.4691 46.6996 37.5512 42.1254 42.1254C37.5512 46.6996 31.4691 49.2188 25 49.2188ZM25 1.49219C18.7211 1.49219 12.8176 3.9375 8.37773 8.37734C3.9375 12.8176 1.49219 18.7207 1.49219 25C1.49219 31.2793 3.9375 37.1828 8.37734 41.6227C12.8172 46.0625 18.7207 48.5078 25 48.5078C31.2793 48.5078 37.1828 46.0625 41.6227 41.6227C46.0625 37.1828 48.5078 31.2793 48.5078 25C48.5078 18.7207 46.0625 12.8176 41.6227 8.37734C37.1824 3.9375 31.2793 1.49219 25 1.49219Z" fill="#11557C"/>
<path opacity="0.6" d="M24.9902 24.9156L25.0406 24.8992L25.091 24.8828L25.1414 24.8664L25.1918 24.85L25.2422 24.8336L25.2926 24.8172L25.343 24.8008L25.3934 24.7844L25.4438 24.768L25.4941 24.7516L25.5445 24.7352L25.5949 24.7188L25.6453 24.7024L25.6957 24.686L25.7461 24.6696L25.7965 24.6531L25.8469 24.6367L25.8973 24.6203L25.9477 24.6039L25.998 24.5875L26.0484 24.5711L26.0988 24.5547L26.1492 24.5383L26.1996 24.5219L26.25 24.5055L26.3004 24.4891L26.3508 24.4727L26.4012 24.4563L26.4516 24.4399L26.502 24.4235L26.5523 24.4071L26.6027 24.3906L26.6531 24.3742L26.7035 24.3578L26.7539 24.3414L26.8043 24.325L26.8547 24.3086L26.9051 24.2922L26.9555 24.2758L27.0059 24.2594L27.0563 24.243L27.1066 24.2266L27.157 24.2102L27.2074 24.1938L27.2578 24.1774L27.3082 24.161L27.3586 24.1446L27.409 24.1282L27.4594 24.1117L27.5098 24.0953L27.5602 24.0789L27.6105 24.0625L27.6609 24.0461L27.7113 24.0297L27.7617 24.0133L27.8121 23.9969L27.8625 23.9805L27.9129 23.9641L27.9633 23.9477L28.0137 23.9313L28.0641 23.9149L28.1145 23.8985L28.1648 23.8821L28.2152 23.8656L28.2656 23.8492L28.316 23.8328L28.3664 23.8164L28.4168 23.8L28.4672 23.7836L28.5176 23.7672L28.568 23.7508L28.6184 23.7344L28.6687 23.718L28.7191 23.7016L28.7695 23.6852L28.8199 23.6688L28.8703 23.6524L28.9207 23.636L28.9711 23.6196L29.0215 23.6031L29.0719 23.5867L29.1223 23.5703L29.1727 23.5539L29.223 23.5375L29.2734 23.5211L29.3238 23.5047L29.3742 23.4883L29.4246 23.4719L29.475 23.4555L29.5254 23.4391L29.5758 23.4227L29.6262 23.4063L29.6766 23.3899L29.727 23.3735L29.7773 23.3571L29.8277 23.3406L29.8781 23.3242L29.9285 23.3078L29.9789 23.2914L30.0293 23.275L30.0391 23.293L30.0441 23.309L30.0492 23.325L30.0543 23.341L30.0594 23.3571L30.0645 23.3731L30.0691 23.3891L30.0738 23.4051L30.0781 23.4203L30.0828 23.4364L30.0875 23.4524L30.0922 23.4684L30.0969 23.4844L30.1012 23.5004L30.1055 23.5164L30.1098 23.5324L30.1141 23.5485L30.1184 23.5645L30.1227 23.5805L30.127 23.5965L30.1313 23.6125L30.1352 23.6285L30.1391 23.6446L30.143 23.6606L30.1469 23.6766L30.1508 23.6926L30.1547 23.709L30.1586 23.7254L30.1621 23.7418L30.1656 23.7582L30.1691 23.7746L30.1727 23.791L30.1762 23.8074L30.1797 23.8239L30.1832 23.8403L30.1867 23.8567L30.1902 23.8731L30.1934 23.8895L30.1965 23.9059L30.1996 23.9223L30.2027 23.9387L30.2059 23.9551L30.209 23.9715L30.2117 23.9879L30.2145 24.0043L30.2172 24.0207L30.2199 24.0371L30.2227 24.0535L30.2254 24.0699L30.2281 24.0864L30.2309 24.1028L30.2336 24.1192L30.2359 24.1356L30.2383 24.152L30.2406 24.1684L30.243 24.1848L30.2453 24.2012L30.2477 24.2176L30.25 24.234L30.252 24.2504L30.2539 24.2668L30.2559 24.2832L30.2578 24.2996L30.2598 24.316L30.2617 24.3324L30.2637 24.3489L30.2656 24.3653L30.2672 24.3817L30.2688 24.3981L30.2703 24.4145L30.2719 24.4309L30.2734 24.4473L30.275 24.4637L30.2766 24.4805L30.2777 24.4973L30.2789 24.5141L30.2801 24.5309L30.2812 24.5477L30.2824 24.5645L30.2836 24.5813L30.2848 24.5981L30.2859 24.6149L30.2867 24.6317L30.2875 24.6485L30.2883 24.6653L30.2891 24.6821L30.2898 24.6989L30.2906 24.7156L30.2914 24.7324L30.2918 24.7492L30.2922 24.766L30.2926 24.7828L30.293 24.7996L30.2934 24.8164L30.2938 24.8332L30.2941 24.85V24.9172H25.043L24.9902 24.9156Z" fill="#004CFF"/>
<path opacity="0.6" d="M24.9902 24.9156L25.0461 24.7668L25.102 24.618L25.1578 24.4692L25.2137 24.3203L25.2695 24.1715L25.3254 24.0227L25.3812 23.8739L25.4371 23.725L25.493 23.5762L25.5488 23.4274L25.6047 23.2785L25.6605 23.1297L25.7164 22.9809L25.7723 22.8321L25.8281 22.6832L25.884 22.5344L25.9398 22.3856L25.9957 22.2367L26.0516 22.0879L26.1074 21.9391L26.1633 21.7903L26.2191 21.6414L26.275 21.4926L26.3309 21.3438L26.3867 21.1949L26.4426 21.0461L26.4984 20.8973L26.5543 20.7485L26.6102 20.5996L26.666 20.4508L26.7219 20.302L26.7777 20.1531L26.8336 20.0043L26.8895 19.8555L26.9453 19.7067L27.0012 19.5578L27.057 19.409L27.1129 19.2602L27.1688 19.1114L27.2246 18.9625L27.2805 18.8137L27.3363 18.6649L27.3922 18.516L27.448 18.3672L27.5039 18.2184L27.5598 18.0696L27.6156 17.9207L27.6715 17.7719L27.7273 17.6231L27.7832 17.4742L27.8391 17.3254L27.8949 17.1766L27.9508 17.0278L28.0066 16.8789L28.0625 16.7301L28.1184 16.5813L28.1742 16.4324L28.2301 16.2836L28.2859 16.1348L28.3418 15.986L28.3977 15.8371L28.4535 15.6883L28.5094 15.5395L28.5652 15.3907L28.6211 15.2418L28.677 15.093L28.7328 14.9442L28.7887 14.7953L28.8445 14.6465L28.9004 14.4977L28.9563 14.3489L29.0121 14.2L29.068 14.0512L29.1238 13.9024L29.1797 13.7535L29.2355 13.6047L29.2914 13.4559L29.3473 13.3071L29.4031 13.1582L29.459 13.0094L29.5148 12.8606L29.5707 12.7117L29.6266 12.5629L29.6824 12.4141L29.7383 12.2653L29.7941 12.1164L29.85 11.9676L29.9059 11.8188L29.9617 11.6699L30.0176 11.5211L30.0734 11.3723L30.1293 11.2235L30.1852 11.0746L30.241 10.9258L30.2969 10.777L30.3527 10.6281L30.4086 10.4793L30.4688 10.3188L30.5246 10.1699L30.5805 10.0211L30.6273 10.0387L30.6742 10.0567L30.7207 10.0746L30.7672 10.0926L30.8137 10.111L30.8602 10.1293L30.9066 10.1477L30.9531 10.1664L30.9996 10.1852L31.0457 10.2043L31.0918 10.2235L31.1379 10.2426L31.184 10.2621L31.2301 10.2817L31.2762 10.3012L31.3219 10.3211L31.3676 10.341L31.4133 10.361L31.459 10.3813L31.5047 10.4016L31.5504 10.4223L31.5957 10.443L31.641 10.4637L31.6863 10.4848L31.7316 10.5059L31.777 10.527L31.8223 10.5485L31.8672 10.5699L31.9121 10.5914L31.957 10.6133L32.002 10.6352L32.0469 10.6574L32.0918 10.6797L32.1363 10.702L32.1809 10.7246L32.2254 10.7473L32.2699 10.7699L32.3145 10.793L32.3586 10.816L32.4027 10.8391L32.4469 10.8625L32.491 10.886L32.5352 10.9098L32.5793 10.9336L32.623 10.9574L32.6668 10.9817L32.7105 11.0059L32.7543 11.0301L32.798 11.0547L32.8414 11.0793L32.8848 11.1039L32.9281 11.1289L32.9715 11.1539L33.0148 11.1789L33.0578 11.2043L33.1008 11.2297L33.1438 11.2551L33.1867 11.2809L33.2297 11.3067L33.2723 11.3324L33.3148 11.3586L33.3574 11.3848L33.4 11.411L33.4422 11.4375L33.4844 11.4641L33.5266 11.4906L33.5688 11.5176L33.6109 11.5446L33.6527 11.5715L33.6945 11.5989L33.7363 11.6262L33.7781 11.6539L33.8199 11.6817L33.8613 11.7094L33.9027 11.7375L33.9441 11.7657L33.9855 11.7938L34.0266 11.8223L34.0676 11.8508L34.1086 11.8793L34.1496 11.9082L34.1902 11.9371L34.2309 11.966L34.2715 11.9949L34.3121 12.0242L34.3527 12.0535L34.393 12.0828L34.4332 12.1125L34.4734 12.1422L34.5137 12.1719L34.5535 12.202L34.5934 12.2321L34.6332 12.2621L34.673 12.2926L34.7125 12.3231L34.752 12.3535L34.7914 12.3844L34.8309 12.4153L34.8699 12.4461L34.909 12.4774L34.8098 12.6016L34.7105 12.7258L34.6113 12.85L34.5121 12.9742L34.4129 13.0985L34.3137 13.2227L34.2145 13.3469L34.1152 13.4711L34.016 13.5953L33.9168 13.7196L33.8176 13.8438L33.7184 13.968L33.6191 14.0922L33.5207 14.2188L33.4215 14.343L33.3223 14.4672L33.223 14.5914L33.1238 14.7157L33.0246 14.8399L32.9258 14.9649L32.8266 15.0891L32.7273 15.2133L32.6281 15.3375L32.5289 15.4617L32.4297 15.586L32.3305 15.7102L32.2313 15.8344L32.132 15.9586L32.0328 16.0828L31.9336 16.2071L31.8344 16.3313L31.7352 16.4555L31.6359 16.5797L31.5367 16.7039L31.4375 16.8282L31.3383 16.9524L31.2391 17.0766L31.1398 17.2008L31.0406 17.325L30.9414 17.4492L30.8422 17.5735L30.743 17.6977L30.6438 17.8219L30.5445 17.9461L30.4453 18.0703L30.3461 18.1946L30.2469 18.3188L30.1477 18.443L30.0484 18.5672L29.9492 18.6914L29.85 18.8156L29.7516 18.9453L29.6523 19.0696L29.5531 19.1938L29.4539 19.318L29.3547 19.4422L29.2555 19.5664L29.1563 19.6914L29.057 19.8156L28.9578 19.9399L28.8586 20.0641L28.7594 20.1883L28.6602 20.3125L28.5609 20.4367L28.4617 20.561L28.3625 20.6852L28.2633 20.8094L28.1641 20.9336L28.0648 21.0578L27.9656 21.1821L27.8664 21.3063L27.7672 21.4305L27.668 21.5547L27.5687 21.6789L27.4695 21.8032L27.3703 21.9274L27.2711 22.0516L27.1719 22.1758L27.0727 22.3L26.9734 22.4242L26.875 22.5524L26.7758 22.6766L26.6766 22.8008L26.5773 22.925L26.4781 23.0492L26.3789 23.1735L26.2797 23.2977L26.1805 23.4219L26.0812 23.5461L25.982 23.6703L25.8828 23.7946L25.7836 23.9188L25.6844 24.043L25.5852 24.1672L25.4859 24.2914L25.3867 24.4157L25.2875 24.5399L25.1883 24.6641L25.0891 24.7883L24.9902 24.9156Z" fill="#CEFF29"/>
<path opacity="0.6" d="M24.9901 24.9156L24.8542 24.7527L24.7183 24.5898L24.5823 24.4269L24.4464 24.264L24.3104 24.1012L24.1745 23.9383L24.0386 23.7754L23.9026 23.6125L23.7667 23.4496L23.6308 23.2867L23.4948 23.1238L23.3589 22.9609L23.2229 22.798L23.087 22.6351L22.9511 22.4723L22.8151 22.3094L22.6792 22.1465L22.5433 21.9836L22.4073 21.8207L22.2714 21.6578L22.1354 21.4949L21.9995 21.332L21.8636 21.1691L21.7276 21.0062L21.5917 20.8433L21.4558 20.6805L21.3198 20.5176L21.1839 20.3547L21.0479 20.1918L20.912 20.0289L20.7761 19.866L20.6401 19.7031L20.5042 19.5402L20.3683 19.3773L20.2323 19.2144L20.0964 19.0515L19.9604 18.8887L19.8245 18.7258L19.6886 18.5629L19.5526 18.4L19.4167 18.2371L19.2808 18.0742L19.1448 17.9113L19.0089 17.7484L18.8729 17.5855L18.737 17.4226L18.6011 17.2598L18.4651 17.0969L18.3292 16.934L18.1933 16.7711L18.0573 16.6082L17.9214 16.4453L17.7854 16.2824L17.6495 16.1195L17.5136 15.9566L17.3776 15.7937L17.2417 15.6308L17.1058 15.468L16.9698 15.3051L16.8339 15.1422L16.6979 14.9793L16.562 14.8164L16.4261 14.6535L16.2901 14.4906L16.1542 14.3277L16.0183 14.1648L15.8823 14.0019L15.7464 13.839L15.6104 13.6762L15.4745 13.5133L15.3386 13.3504L15.2026 13.1875L15.0667 13.0246L14.9308 12.8617L14.7948 12.6988L14.6589 12.5359L14.5229 12.373L14.387 12.2101L14.2511 12.0473L14.1151 11.8844L13.9792 11.7215L13.8433 11.5586L13.7073 11.3957L13.5714 11.2328L13.4354 11.0699L13.2995 10.907L13.1636 10.7441L13.0276 10.5812L12.8917 10.4183L12.7558 10.2555L12.6198 10.0926L12.4839 9.92967L12.3479 9.76678L12.2116 9.60936L12.0757 9.44647L11.9397 9.28358L11.8038 9.12069L11.6679 8.9578L11.5319 8.79491L11.396 8.63202L11.4729 8.56796L11.5503 8.50428L11.6276 8.441L11.7054 8.37811L11.7835 8.31561L11.862 8.2535L11.9405 8.19178L12.0194 8.13046L12.0987 8.06952L12.1784 8.00897L12.2581 7.94882L12.3382 7.88905L12.4187 7.82968L12.4991 7.77069L12.58 7.7121L12.6612 7.65389L12.7429 7.59608L12.8245 7.53866L12.9065 7.48163L12.989 7.42499L13.0714 7.36874L13.1542 7.31288L13.2374 7.25741L13.3206 7.20233L13.4042 7.14764L13.4882 7.09335L13.5722 7.03944L13.6565 6.98593L13.7413 6.9328L13.8261 6.88007L13.9112 6.82772L13.9968 6.77577L14.0823 6.72421L14.1683 6.67303L14.2542 6.62225L14.3405 6.57186L14.4272 6.52186L14.514 6.47225L14.6011 6.42303L14.6882 6.37421L14.7757 6.32577L14.8636 6.27772L14.9515 6.23007L15.0397 6.1828L15.128 6.13593L15.2167 6.08983L15.3054 6.04413L15.3944 5.99882L15.4835 5.95389L15.5729 5.90936L15.6628 5.86522L15.7526 5.82147L15.8429 5.77811L15.9331 5.73514L16.0237 5.69257L16.1144 5.65038L16.2054 5.60858L16.2964 5.56757L16.3878 5.52694L16.4792 5.48671L16.571 5.44686L16.6628 5.40741L16.755 5.36835L16.8472 5.32968L16.9397 5.29139L17.0323 5.2535L17.1249 5.21639L17.2179 5.17968L17.3108 5.14335L17.4042 5.10741L17.4976 5.07186L17.5913 5.03671L17.6851 5.00194L17.7788 4.96757L17.8729 4.93397L17.9671 4.90077L18.0616 4.86796L18.1562 4.83553L18.2507 4.8035L18.3456 4.77186L18.4405 4.74061L18.5358 4.71014L18.6312 4.68007L18.7265 4.65038L18.8222 4.62108L18.9179 4.59217L19.0136 4.56366L19.1097 4.53553L19.2058 4.50819L19.3019 4.48124L19.3983 4.45468L19.4948 4.4285L19.5913 4.40272L19.6882 4.37733L19.7851 4.35272L19.8819 4.3285L19.9792 4.30468L20.0765 4.28124L20.1737 4.25819L20.271 4.23553L20.3183 4.44218L20.3655 4.64882L20.4128 4.85546L20.4601 5.0621L20.5073 5.26874L20.5546 5.47538L20.6019 5.68202L20.6491 5.88866L20.6964 6.0953L20.7437 6.30194L20.7909 6.50858L20.8382 6.71522L20.8854 6.92186L20.9327 7.1285L20.98 7.33514L21.0272 7.54178L21.0745 7.74843L21.1218 7.95507L21.169 8.16171L21.2163 8.36835L21.2636 8.57499L21.3108 8.78163L21.3581 8.98827L21.4054 9.19491L21.4526 9.40155L21.4999 9.60819L21.5472 9.81483L21.5944 10.0215L21.6417 10.2281L21.689 10.4348L21.7362 10.6414L21.7835 10.848L21.8308 11.0547L21.8749 11.2668L21.9222 11.4734L21.9694 11.6801L22.0167 11.8867L22.064 12.0933L22.1112 12.3L22.1585 12.5066L22.2058 12.7133L22.253 12.9199L22.3003 13.1265L22.3476 13.3332L22.3948 13.5398L22.4421 13.7465L22.4894 13.9531L22.5366 14.1598L22.5839 14.3664L22.6312 14.573L22.6784 14.7797L22.7257 14.9863L22.7729 15.193L22.8202 15.3996L22.8675 15.6062L22.9147 15.8129L22.962 16.0195L23.0093 16.2262L23.0565 16.4328L23.1038 16.6394L23.1511 16.8461L23.1983 17.0527L23.2456 17.2594L23.2929 17.466L23.3401 17.6726L23.3874 17.8793L23.4347 18.0859L23.4819 18.2926L23.5292 18.4992L23.5765 18.7058L23.6237 18.9125L23.671 19.1191L23.7183 19.3258L23.7655 19.5324L23.8128 19.7391L23.8601 19.9457L23.9073 20.1523L23.9546 20.359L24.0019 20.5656L24.0491 20.7723L24.0964 20.9789L24.1437 21.1855L24.1909 21.3922L24.2382 21.5988L24.2854 21.8055L24.3327 22.0121L24.38 22.2187L24.4272 22.4254L24.4745 22.632L24.5218 22.8387L24.569 23.0453L24.6163 23.2519L24.6636 23.4586L24.7108 23.6652L24.7581 23.8719L24.8054 24.0785L24.8526 24.2851L24.8999 24.4918L24.9472 24.6984L24.9901 24.9156Z" fill="#FF6800"/>
<path opacity="0.6" d="M24.9904 24.9156L24.8076 24.9488L24.6248 24.982L24.442 25.0152L24.2592 25.0484L24.0764 25.0817L23.8936 25.1149L23.7107 25.1481L23.5279 25.1813L23.3451 25.2145L23.1643 25.2469L22.9814 25.2801L22.7986 25.3133L22.6158 25.3465L22.433 25.3797L22.2502 25.4129L22.0674 25.4461L21.8846 25.4793L21.7018 25.5125L21.5189 25.5457L21.3361 25.5789L21.1533 25.6121L20.9729 25.6445L20.79 25.6777L20.6072 25.7109L20.4244 25.7442L20.2424 25.7774L20.0596 25.8106L19.8768 25.8438L19.6939 25.877L19.5111 25.9102L19.3283 25.9434L19.1455 25.9766L18.9627 26.0098L18.7799 26.043L18.5971 26.0762L18.4143 26.1094L18.2314 26.1426L18.0486 26.1758L17.8658 26.209L17.683 26.2422L17.5002 26.2754L17.3174 26.3086L17.1346 26.3418L16.9518 26.375L16.7689 26.4082L16.5861 26.4414L16.4033 26.4746L16.2205 26.5078L16.0377 26.541L15.8596 26.5727L15.6768 26.6059L15.4939 26.6391L15.3111 26.6723L15.1283 26.7055L14.9455 26.7387L14.7627 26.7719L14.5799 26.8051L14.3971 26.8383L14.2143 26.8715L14.0314 26.9047L13.8486 26.9379L13.6658 26.9711L13.483 27.0043L13.3002 27.0375L13.1174 27.0707L12.9346 27.1039L12.7518 27.1371L12.5689 27.1703L12.3861 27.2035L12.2033 27.2367L12.0205 27.2699L11.8377 27.3031L11.6549 27.3363L11.4721 27.3695L11.2893 27.4027L11.1064 27.4359L10.9236 27.4692L10.7408 27.5024L10.558 27.5356L10.3752 27.5688L10.1924 27.602L10.0096 27.6352L9.82676 27.6684L9.64395 27.7016L9.46113 27.7348L9.28535 27.7656L9.10254 27.7988L8.91973 27.832L8.73691 27.8652L8.55488 27.8984L8.37207 27.9317L8.18926 27.9649L8.00645 27.9981L7.82363 28.0313L7.64082 28.0645L7.45801 28.0977L7.2752 28.1309L7.09238 28.1641L6.90957 28.1973L6.72676 28.2305L6.70645 28.1156L6.68652 28.0008L6.66738 27.8856L6.64902 27.7703L6.63145 27.6551L6.6166 27.5391L6.60059 27.4234L6.58535 27.3078L6.57051 27.1922L6.55645 27.0766L6.54316 26.9606L6.53066 26.8445L6.51895 26.7285L6.50801 26.6125L6.49785 26.4965L6.48848 26.3801L6.47949 26.2637L6.47129 26.1473L6.46387 26.0309L6.45723 25.9145L6.45137 25.7981L6.44629 25.6817L6.44199 25.5652L6.43848 25.4488L6.43535 25.3324L6.43301 25.216L6.43145 25.0992L6.43066 24.9824V24.8656L6.43145 24.7488L6.43301 24.632L6.43496 24.5156L6.4377 24.3992L6.44121 24.2828L6.44551 24.1664L6.45059 24.05L6.45645 23.9336L6.46309 23.8172L6.47051 23.7008L6.47832 23.5844L6.48691 23.468L6.49629 23.3516L6.50645 23.2356L6.51738 23.1195L6.5291 23.0035L6.5416 22.8875L6.55488 22.7715L6.56855 22.6559L6.58301 22.5402L6.59824 22.4246L6.61426 22.309L6.63105 22.1938L6.64863 22.0785L6.66699 21.9633L6.68574 21.8481L6.70527 21.7332L6.72559 21.6184L6.74668 21.5035L6.76855 21.3891L6.79121 21.2746L6.81426 21.1602L6.83809 21.0461L6.8627 20.932L6.88809 20.8184L6.91426 20.7047L6.94121 20.591L6.96856 20.4777L6.99668 20.3645L7.02559 20.2516L7.05527 20.1387L7.08574 20.0262L7.11699 19.9137L7.14863 19.8016L7.18105 19.6895L7.21426 19.5777L7.24824 19.466L7.28301 19.3547L7.31816 19.2434L7.3541 19.1324L7.39082 19.0219L7.42832 18.9113L7.46621 18.8012L7.50488 18.691L7.54434 18.5813L7.58457 18.4719L7.62559 18.3625L7.66699 18.2535L7.70918 18.1449L7.75215 18.0363L7.7959 17.9281L7.84004 17.8203L7.88496 17.7125L7.93066 17.6051L7.97676 17.4981L8.02363 17.3914L8.07129 17.2848L8.11973 17.1785L8.16855 17.0727L8.21816 16.9672L8.26855 16.8621L8.43574 16.9426L8.60293 17.0231L8.77012 17.1035L8.9373 17.184L9.10449 17.2645L9.27168 17.3449L9.43887 17.4254L9.60605 17.5059L9.77324 17.5863L9.94043 17.6668L10.1076 17.7473L10.2748 17.8277L10.442 17.9082L10.6092 17.9887L10.7764 18.0692L10.9436 18.1496L11.1107 18.2301L11.2779 18.3106L11.4451 18.391L11.6123 18.4715L11.7795 18.552L11.9467 18.6324L12.1139 18.7129L12.2811 18.7934L12.4482 18.8738L12.6154 18.9543L12.7826 19.0348L12.9498 19.1152L13.117 19.1957L13.2842 19.2762L13.4514 19.3567L13.6186 19.4371L13.7857 19.5176L13.9529 19.5981L14.1201 19.6785L14.2873 19.759L14.4545 19.8395L14.6217 19.9199L14.7889 20.0004L14.9561 20.0809L15.1232 20.1613L15.2904 20.2418L15.4576 20.3223L15.6248 20.4027L15.792 20.4832L15.9592 20.5637L16.1264 20.6442L16.2936 20.7246L16.4607 20.8051L16.6279 20.8856L16.7951 20.966L16.9623 21.0465L17.1295 21.127L17.2967 21.2074L17.4639 21.2879L17.6311 21.3684L17.7982 21.4488L17.9654 21.5293L18.1326 21.6098L18.2998 21.6902L18.467 21.7707L18.6342 21.8512L18.8014 21.9317L18.9686 22.0121L19.1357 22.0926L19.3029 22.1731L19.4701 22.2535L19.6373 22.334L19.8045 22.4145L19.9717 22.4949L20.1389 22.5754L20.3061 22.6559L20.4732 22.7363L20.6404 22.8168L20.8076 22.8973L20.9748 22.9777L21.142 23.0582L21.3092 23.1387L21.4764 23.2192L21.6436 23.2996L21.8107 23.3801L21.9779 23.4606L22.1451 23.541L22.3123 23.6215L22.4795 23.702L22.6467 23.7824L22.8139 23.8629L22.9811 23.9434L23.1482 24.0238L23.3154 24.1043L23.4826 24.1848L23.6498 24.2652L23.817 24.3457L23.9842 24.4262L24.1514 24.5067L24.3186 24.5871L24.4857 24.6676L24.6529 24.7481L24.8201 24.8285L24.9904 24.9156Z" fill="#FFC400"/>
<path opacity="0.6" d="M24.9904 24.9156L24.9033 24.9762L24.8162 25.0367L24.7291 25.0973L24.642 25.1578L24.5549 25.2184L24.4678 25.2789L24.3807 25.3395L24.2932 25.3985L24.2061 25.459L24.1189 25.5196L24.0318 25.5801L23.9447 25.6406L23.8576 25.7012L23.7705 25.7617L23.6834 25.8223L23.5963 25.8828L23.5092 25.9434L23.4221 26.0039L23.335 26.0645L23.2479 26.125L23.1607 26.1856L23.0736 26.2461L22.9865 26.3067L22.8994 26.3672L22.8123 26.4278L22.7252 26.4883L22.6381 26.5489L22.551 26.6094L22.4639 26.6699L22.3768 26.7305L22.2896 26.791L22.2025 26.8516L22.1154 26.9121L22.0283 26.9727L21.9412 27.0332L21.8541 27.0938L21.767 27.1543L21.6799 27.2149L21.5928 27.2754L21.5057 27.336L21.4186 27.3965L21.3314 27.4571L21.2443 27.5176L21.1572 27.5781L21.0701 27.6387L20.983 27.6992L20.8959 27.7598L20.8088 27.8203L20.7217 27.8809L20.6346 27.9414L20.5475 28.002L20.4604 28.0625L20.3732 28.1231L20.2861 28.1836L20.1955 28.2371L20.1084 28.2977L20.0213 28.3582L19.9342 28.4188L19.8471 28.4793L19.76 28.5399L19.6729 28.6004L19.5857 28.661L19.4986 28.7215L19.4115 28.7821L19.3244 28.8426L19.2373 28.9031L19.1502 28.9637L19.0631 29.0242L18.976 29.0848L18.8889 29.1453L18.8018 29.2059L18.7146 29.2664L18.6275 29.327L18.5404 29.3875L18.4533 29.4481L18.3662 29.5086L18.2791 29.5692L18.192 29.6297L18.1049 29.6903L18.0178 29.7508L17.9307 29.8114L17.8436 29.8719L17.7564 29.9324L17.6693 29.993L17.5822 30.0535L17.4951 30.1141L17.408 30.1746L17.3209 30.2352L17.2338 30.2957L17.1467 30.3563L17.0596 30.4168L16.9725 30.4774L16.8854 30.5379L16.7982 30.5985L16.7111 30.659L16.624 30.7196L16.5369 30.7801L16.4498 30.8407L16.3596 30.8946L16.2725 30.9551L16.2631 30.9414L16.2537 30.9278L16.2443 30.9141L16.235 30.9004L16.2256 30.8867L16.2162 30.8731L16.2068 30.8594L16.1975 30.8457L16.1881 30.8321L16.1787 30.8184L16.1693 30.8047L16.16 30.791L16.1506 30.777L16.1412 30.7629L16.1322 30.7489L16.1232 30.7348L16.1143 30.7207L16.1053 30.7067L16.0963 30.6926L16.0873 30.6785L16.0783 30.6645L16.0693 30.6504L16.0604 30.6364L16.0514 30.6223L16.0424 30.6082L16.0334 30.5942L16.0244 30.5801L16.0154 30.566L16.0064 30.552L15.9975 30.5379L15.9885 30.5239L15.9795 30.5098L15.9709 30.4957L15.9623 30.4817L15.9537 30.4676L15.9451 30.4535L15.9365 30.4395L15.9279 30.4254L15.9193 30.4114L15.9107 30.3973L15.9021 30.3828L15.8936 30.3684L15.885 30.3539L15.8764 30.3395L15.8678 30.325L15.8592 30.3106L15.8506 30.2961L15.842 30.2817L15.8334 30.2672L15.8252 30.2528L15.817 30.2383L15.8088 30.2239L15.8006 30.2094L15.7924 30.1949L15.7842 30.1805L15.776 30.166L15.7678 30.1516L15.7596 30.1371L15.7514 30.1227L15.7432 30.1082L15.735 30.0938L15.7268 30.0793L15.7186 30.0649L15.7104 30.0504L15.7021 30.036L15.6939 30.0215L15.6857 30.0071L15.6779 29.9926L15.6701 29.9782L15.6623 29.9637L15.6545 29.9489L15.6467 29.934L15.6389 29.9192L15.6311 29.9043L15.6232 29.8895L15.6154 29.8746L15.6076 29.8598L15.5998 29.8449L15.592 29.8301L15.5842 29.8153L15.5764 29.8004L15.5686 29.7856L15.5607 29.7707L15.5533 29.7559L15.5459 29.741L15.5385 29.7262L15.5311 29.7114L15.5236 29.6965L15.5162 29.6817L15.5088 29.6668L15.5014 29.652L15.4939 29.6371L15.4865 29.6223L15.4791 29.6074L15.4717 29.5926L15.4643 29.5778L15.4568 29.5629L15.4494 29.5469L15.442 29.5321L15.4346 29.5172L15.5303 29.4711L15.626 29.425L15.7217 29.3789L15.8174 29.3328L15.9131 29.2867L16.0088 29.2407L16.1045 29.1946L16.2002 29.1485L16.2959 29.1024L16.3916 29.0563L16.4873 29.0102L16.583 28.9641L16.6787 28.918L16.7744 28.8719L16.8701 28.8258L16.9658 28.7797L17.0615 28.7336L17.1572 28.6875L17.2529 28.6414L17.3486 28.5953L17.4443 28.5492L17.54 28.5032L17.6357 28.4571L17.7314 28.411L17.8271 28.3649L17.9229 28.3188L18.0186 28.2727L18.1143 28.2266L18.21 28.1805L18.3057 28.1344L18.4014 28.0883L18.4971 28.0422L18.5928 27.9961L18.6885 27.95L18.7842 27.9039L18.8799 27.8578L18.9756 27.8117L19.0713 27.7657L19.167 27.7196L19.2627 27.6735L19.3584 27.6274L19.4541 27.5813L19.5498 27.5352L19.6455 27.4891L19.7412 27.443L19.8369 27.3969L19.9326 27.3508L20.0283 27.3047L20.124 27.2586L20.2197 27.2125L20.3154 27.1664L20.4111 27.1203L20.5068 27.0742L20.6025 27.0281L20.6982 26.9821L20.7939 26.936L20.8896 26.8899L20.9854 26.8438L21.0811 26.7977L21.1768 26.7516L21.2725 26.7055L21.3682 26.6594L21.4639 26.6133L21.5596 26.5672L21.6553 26.5211L21.751 26.475L21.8467 26.4289L21.9424 26.3828L22.0381 26.3367L22.1338 26.2906L22.2295 26.2446L22.3252 26.1985L22.4209 26.1524L22.5166 26.1063L22.6123 26.0602L22.708 26.0141L22.8037 25.968L22.8994 25.9219L22.9951 25.8758L23.0908 25.8297L23.1865 25.7836L23.2822 25.7375L23.3779 25.6914L23.4736 25.6453L23.5693 25.5992L23.665 25.5531L23.7607 25.5071L23.8564 25.461L23.9521 25.4149L24.0479 25.3688L24.1436 25.3227L24.2393 25.2766L24.335 25.2305L24.4307 25.1844L24.5264 25.1383L24.6221 25.0922L24.7178 25.0461L24.8135 25L24.9092 24.9539L24.9904 24.9156Z" fill="#29FFCE"/>
<path opacity="0.6" d="M24.9901 24.9156L25.0124 25.0465L25.0347 25.1774L25.0569 25.3082L25.0792 25.4391L25.1015 25.5699L25.1237 25.7008L25.146 25.8317L25.1683 25.9625L25.1905 26.0934L25.2128 26.2242L25.2351 26.3551L25.2573 26.486L25.2796 26.6168L25.3019 26.7477L25.3241 26.8785L25.3464 27.0094L25.3687 27.1403L25.3909 27.2711L25.4132 27.402L25.4354 27.5328L25.4577 27.6637L25.48 27.7946L25.5022 27.9254L25.5245 28.0563L25.5468 28.1871L25.569 28.318L25.5913 28.4489L25.6136 28.5797L25.6358 28.7106L25.6581 28.8414L25.6804 28.9723L25.7026 29.1031L25.7249 29.234L25.7472 29.3649L25.7694 29.4957L25.7917 29.6266L25.814 29.7574L25.8362 29.8883L25.8585 30.0192L25.8808 30.15L25.903 30.2809L25.9253 30.4117L25.9476 30.5426L25.9698 30.6735L25.9921 30.8043L26.0144 30.9352L26.0366 31.066L26.0589 31.1969L26.0812 31.3278L26.1034 31.4586L26.1257 31.5895L26.148 31.7203L26.1702 31.8512L26.1925 31.9821L26.2147 32.1129L26.237 32.2438L26.2593 32.3746L26.2815 32.5055L26.3038 32.6364L26.3261 32.7672L26.3483 32.8981L26.3706 33.0289L26.3929 33.1598L26.4151 33.2906L26.4374 33.4215L26.4597 33.5524L26.4819 33.6832L26.5042 33.8141L26.5265 33.9449L26.5487 34.0758L26.571 34.2067L26.5933 34.3375L26.6155 34.4684L26.6378 34.5992L26.6601 34.7301L26.6823 34.861L26.7046 34.9918L26.7269 35.1227L26.7491 35.2535L26.7714 35.3844L26.7937 35.5153L26.8159 35.6461L26.8382 35.777L26.8604 35.9078L26.8827 36.0387L26.905 36.1696L26.9272 36.3004L26.9495 36.4313L26.9718 36.5621L26.994 36.693L27.0163 36.8239L27.0386 36.9547L27.0608 37.0856L27.0831 37.2164L27.1054 37.3473L27.1276 37.4782L27.1499 37.609L27.1722 37.7399L27.1944 37.8707L27.2167 38.0016L27.1655 38.0102L27.114 38.0188L27.0624 38.027L27.0108 38.0352L26.9593 38.043L26.9077 38.0504L26.8562 38.0578L26.8046 38.0649L26.753 38.0719L26.7015 38.0785L26.6499 38.0852L26.5983 38.0914L26.5468 38.0977L26.4952 38.1035L26.4437 38.1094L26.3921 38.1149L26.3401 38.1203L26.2882 38.1254L26.2362 38.1305L26.1843 38.1352L26.1323 38.1399L26.0804 38.1442L26.0284 38.1485L25.9765 38.1524L25.9245 38.1563L25.8726 38.1598L25.8206 38.1633L25.7687 38.1664L25.7167 38.1692L25.6647 38.1719L25.6128 38.1746L25.5608 38.177L25.5089 38.1789L25.4569 38.1809L25.405 38.1824L25.353 38.184L25.3011 38.1852L25.2491 38.1864L25.1972 38.1871L25.1452 38.1879L25.0933 38.1883L25.0413 38.1887H24.9374L24.8854 38.1883L24.8335 38.1879L24.7815 38.1871L24.7296 38.1864L24.6776 38.1852L24.6257 38.184L24.5737 38.1824L24.514 38.1641L24.462 38.1621L24.4101 38.1602L24.3581 38.1578L24.3062 38.1551L24.2538 38.1524L24.2019 38.1492L24.1499 38.1461L24.0979 38.1426L24.046 38.1391L23.994 38.1352L23.9421 38.1313L23.8901 38.127L23.8382 38.1227L23.7862 38.118L23.7343 38.1133L23.6823 38.1082L23.6304 38.1031L23.5784 38.0977L23.5269 38.0918L23.4761 38.086L23.4245 38.0801L23.3729 38.0739L23.3214 38.0672L23.2698 38.0606L23.2183 38.0535L23.1667 38.0465L23.1151 38.0391L23.0636 38.0317L23.012 38.0239L22.9604 38.016L22.9089 38.0078L22.8573 37.9996L22.8062 37.991L22.755 37.9824L22.7038 37.9735L22.6526 37.9645L22.6015 37.9551L22.5503 37.9457L22.4991 37.936L22.4479 37.9262L22.3968 37.916L22.3456 37.9059L22.2944 37.8953L22.2437 37.8848L22.1929 37.8739L22.1421 37.8629L22.0913 37.8516L22.0405 37.8403L22.0702 37.711L22.0999 37.5817L22.1296 37.4524L22.1593 37.3231L22.189 37.1938L22.2187 37.0645L22.2483 36.9352L22.278 36.8059L22.3077 36.6766L22.3374 36.5473L22.3671 36.418L22.3968 36.2887L22.4265 36.1594L22.4562 36.0301L22.4858 35.9008L22.5155 35.7715L22.5452 35.6422L22.5749 35.5129L22.6046 35.3836L22.6343 35.2543L22.664 35.125L22.6937 34.9957L22.7233 34.8664L22.753 34.7371L22.7827 34.6078L22.8124 34.4785L22.8421 34.3492L22.8718 34.2199L22.9015 34.0907L22.9312 33.9614L22.9608 33.8321L22.9905 33.7028L23.0202 33.5735L23.0499 33.4442L23.0796 33.3149L23.1093 33.1856L23.139 33.0563L23.1687 32.927L23.1983 32.7977L23.228 32.6684L23.2577 32.5391L23.2874 32.4098L23.3171 32.2805L23.3468 32.1512L23.3765 32.0219L23.4062 31.8926L23.4358 31.7633L23.4655 31.634L23.4952 31.5047L23.5249 31.3754L23.5546 31.2461L23.5843 31.1168L23.614 30.9875L23.6437 30.8582L23.6733 30.7289L23.703 30.5996L23.7327 30.4703L23.7624 30.341L23.7921 30.2117L23.8218 30.0824L23.8515 29.9531L23.8812 29.8239L23.9108 29.6946L23.9405 29.5653L23.9702 29.436L23.9999 29.3067L24.0296 29.1774L24.0593 29.0481L24.089 28.9188L24.1187 28.7895L24.1483 28.6602L24.178 28.5309L24.2077 28.4016L24.2374 28.2723L24.2671 28.143L24.2968 28.0137L24.3265 27.8844L24.3562 27.7551L24.3858 27.6258L24.4155 27.4965L24.4452 27.3672L24.4749 27.2379L24.5046 27.1086L24.5343 26.9793L24.564 26.85L24.5937 26.7207L24.6233 26.5914L24.653 26.4621L24.6827 26.3328L24.7124 26.2035L24.7421 26.0742L24.7718 25.9449L24.8015 25.8156L24.8312 25.6864L24.8608 25.5571L24.8905 25.4278L24.9202 25.2985L24.9499 25.1692L24.9796 25.0399L24.9901 24.9156Z" fill="#7DFF7A"/>
<path opacity="0.6" d="M24.9902 24.9156L25.1574 25.0461L25.3246 25.1766L25.4918 25.3071L25.659 25.4375L25.8262 25.568L25.9934 25.6985L26.1605 25.8289L26.3277 25.9594L26.4949 26.0899L26.6621 26.2203L26.8293 26.3508L26.9965 26.4813L27.1637 26.6117L27.3309 26.7422L27.5 26.8711L27.6672 27.0016L27.8344 27.1321L28.0016 27.2625L28.1688 27.393L28.3359 27.5235L28.5031 27.6539L28.6703 27.7844L28.8375 27.9149L29.0047 28.0453L29.1719 28.1758L29.3391 28.3063L29.5063 28.4367L29.6734 28.5672L29.8406 28.6977L30.0078 28.8282L30.175 28.9586L30.3422 29.0891L30.5094 29.2196L30.6766 29.35L30.8438 29.4805L31.0109 29.611L31.1781 29.7414L31.3453 29.8719L31.5125 30.0024L31.6797 30.1328L31.8469 30.2633L32.0141 30.3938L32.1813 30.5242L32.3484 30.6547L32.5156 30.7852L32.6828 30.9156L32.85 31.0461L33.0172 31.1766L33.1844 31.3071L33.3516 31.4375L33.5188 31.568L33.6859 31.6985L33.8531 31.8289L34.0203 31.9594L34.1875 32.0899L34.3547 32.2203L34.5219 32.3508L34.6891 32.4813L34.8563 32.6117L35.0234 32.7422L35.1906 32.8727L35.3578 33.0031L35.525 33.1336L35.6922 33.2641L35.8594 33.3946L36.0266 33.525L36.1937 33.6555L36.3609 33.786L36.5281 33.9164L36.6953 34.0469L36.8625 34.1774L37.0297 34.3078L37.1969 34.4383L37.3641 34.5688L37.5313 34.6992L37.6984 34.8297L37.8656 34.9602L38.0328 35.0906L38.2 35.2211L38.3672 35.3516L38.5344 35.4821L38.7016 35.6125L38.8687 35.743L39.0359 35.8735L39.2031 36.0039L39.3703 36.1344L39.5375 36.2649L39.7047 36.3953L39.8719 36.5258L40.0391 36.6563L40.2063 36.7867L40.3734 36.9172L40.5406 37.0477L40.7078 37.1782L40.875 37.3086L41.0422 37.4391L41.2094 37.5696L41.3766 37.7L41.5437 37.8305L41.7109 37.961L41.6801 38.0004L41.6492 38.0399L41.6184 38.0789L41.5875 38.118L41.5563 38.1571L41.525 38.1961L41.4938 38.2352L41.4625 38.2742L41.4309 38.3129L41.3992 38.3516L41.3676 38.3903L41.3359 38.4289L41.3039 38.4676L41.2719 38.5059L41.2398 38.5442L41.2078 38.5824L41.1754 38.6207L41.143 38.659L41.1105 38.6969L41.0781 38.7348L41.0457 38.7727L41.0129 38.8106L40.9801 38.8485L40.9473 38.886L40.9145 38.9235L40.8812 38.961L40.848 38.9985L40.8148 39.036L40.7816 39.0731L40.7484 39.1102L40.7148 39.1473L40.6812 39.1844L40.6477 39.2215L40.6141 39.2582L40.5801 39.2949L40.5461 39.3317L40.5121 39.3684L40.4781 39.4051L40.4441 39.4414L40.4098 39.4778L40.3754 39.5141L40.341 39.5504L40.3066 39.5867L40.2719 39.6227L40.2371 39.6586L40.2023 39.6946L40.1676 39.7305L40.1328 39.7664L40.0977 39.802L40.0625 39.8375L40.0273 39.8731L39.9922 39.9086L39.957 39.9438L39.9215 39.9789L39.8859 40.0141L39.8504 40.0492L39.8148 40.0844L39.7789 40.1192L39.743 40.1539L39.707 40.1887L39.6711 40.2235L39.6352 40.2582L39.5988 40.2926L39.5625 40.327L39.5262 40.3614L39.4898 40.3957L39.4535 40.4297L39.4168 40.4637L39.3801 40.4977L39.3434 40.5317L39.3066 40.5656L39.2699 40.5992L39.2434 40.625L39.2062 40.6586L39.1691 40.6922L39.132 40.7254L39.0949 40.7586L39.0574 40.7918L39.0199 40.825L38.9824 40.8578L38.9449 40.8906L38.9074 40.9235L38.8695 40.9563L38.8316 40.9891L38.7937 41.0215L38.7559 41.0539L38.718 41.0864L38.6797 41.1188L38.6414 41.1508L38.6031 41.1828L38.5648 41.2149L38.5266 41.2469L38.4879 41.2789L38.4492 41.3106L38.4105 41.3422L38.3719 41.3739L38.3332 41.4055L38.2941 41.4367L38.2551 41.468L38.216 41.4992L38.0836 41.3332L37.9516 41.1676L37.8191 41.0016L37.6867 40.8356L37.5543 40.6696L37.4219 40.5035L37.2895 40.3375L37.157 40.1715L37.0246 40.0055L36.8922 39.8395L36.7598 39.6735L36.6273 39.5074L36.4949 39.3414L36.3625 39.1754L36.2301 39.0094L36.0977 38.8434L35.9652 38.6774L35.8328 38.5114L35.7004 38.3453L35.568 38.1793L35.4355 38.0133L35.3031 37.8473L35.1707 37.6813L35.0383 37.5153L34.9059 37.3492L34.777 37.1875L34.6445 37.0215L34.5121 36.8555L34.3797 36.6895L34.2473 36.5235L34.1148 36.3574L33.9824 36.1914L33.85 36.0254L33.7176 35.8594L33.5852 35.6934L33.4527 35.5274L33.3203 35.3614L33.1879 35.1953L33.0555 35.0293L32.923 34.8633L32.7906 34.6973L32.6582 34.5313L32.5258 34.3653L32.3934 34.1992L32.2609 34.0332L32.1285 33.8672L31.9961 33.7012L31.8637 33.5352L31.7313 33.3692L31.5988 33.2031L31.4664 33.0371L31.334 32.8711L31.2016 32.7051L31.0691 32.5391L30.9367 32.3731L30.8043 32.2071L30.6719 32.041L30.5395 31.875L30.407 31.709L30.2746 31.543L30.1422 31.377L30.0098 31.211L29.8773 31.0449L29.7449 30.8789L29.6125 30.7129L29.4801 30.5469L29.3477 30.3809L29.2152 30.2149L29.0828 30.0489L28.9504 29.8828L28.818 29.7168L28.6855 29.5508L28.5531 29.3848L28.4207 29.2188L28.2883 29.0528L28.1559 28.8867L28.0234 28.7207L27.891 28.5547L27.7586 28.3887L27.6262 28.2227L27.4938 28.0567L27.3613 27.8906L27.2289 27.7246L27.0965 27.5586L26.9641 27.3926L26.8316 27.2266L26.6992 27.0606L26.5668 26.8946L26.4344 26.7285L26.302 26.5625L26.1695 26.3965L26.0371 26.2305L25.9047 26.0645L25.7723 25.8985L25.6398 25.7324L25.5074 25.5664L25.375 25.4004L25.2426 25.2344L25.1102 25.0684L24.9902 24.9156Z" fill="#FF6800"/>
<path d="M30.2934 25.0773L24.9903 25.0769C24.9522 25.0765 24.9154 25.0625 24.8865 25.0376C24.8577 25.0126 24.8386 24.9783 24.8326 24.9406C24.8266 24.9029 24.8341 24.8643 24.8538 24.8317C24.8735 24.799 24.9042 24.7744 24.9403 24.7621L29.9841 23.1238C30.0042 23.1172 30.0255 23.1147 30.0466 23.1163C30.0678 23.118 30.0884 23.1238 30.1073 23.1334C30.1262 23.143 30.143 23.1562 30.1568 23.1724C30.1706 23.1885 30.181 23.2072 30.1876 23.2273C30.3653 23.7734 30.4551 24.3418 30.4548 24.916C30.4548 24.9372 30.4506 24.9582 30.4425 24.9777C30.4344 24.9973 30.4225 25.0151 30.4075 25.0301C30.3925 25.0451 30.3747 25.0569 30.3552 25.0651C30.3356 25.0732 30.3146 25.0773 30.2934 25.0773ZM26.0102 24.7539H30.1294C30.116 24.3229 30.0483 23.8953 29.9278 23.4812L26.0102 24.7539Z" fill="#2C2C2C"/>
<path d="M24.9904 25.077C24.9643 25.0769 24.9387 25.0705 24.9156 25.0584C24.8926 25.0463 24.8728 25.0288 24.8579 25.0074C24.8431 24.986 24.8336 24.9613 24.8304 24.9355C24.8271 24.9097 24.8301 24.8834 24.8392 24.859L30.4294 9.96486C30.4368 9.94497 30.4481 9.92673 30.4625 9.9112C30.477 9.89567 30.4944 9.88315 30.5137 9.87437C30.533 9.86558 30.5539 9.8607 30.5751 9.86001C30.5963 9.85932 30.6174 9.86282 30.6372 9.87033C32.2166 10.4619 33.6926 11.2991 35.0107 12.3512C35.0442 12.3779 35.0657 12.4168 35.0705 12.4593C35.0753 12.5019 35.0631 12.5446 35.0365 12.5781L25.1165 25.016C25.1014 25.035 25.0822 25.0503 25.0604 25.0608C25.0385 25.0714 25.0146 25.0769 24.9904 25.077ZM30.6747 10.2301L25.5001 24.0172L34.6826 12.5035C33.4658 11.5526 32.1153 10.7865 30.6747 10.2301Z" fill="#2C2C2C"/>
<path d="M24.9901 25.077C24.9665 25.0769 24.9432 25.0717 24.9218 25.0617C24.9004 25.0518 24.8815 25.0372 24.8663 25.0192L11.2721 8.73595C11.2585 8.71972 11.2482 8.70094 11.2418 8.68071C11.2354 8.66048 11.2331 8.63919 11.235 8.61806C11.2369 8.59693 11.2429 8.57638 11.2528 8.5576C11.2627 8.53882 11.2761 8.52217 11.2924 8.50861C13.8824 6.3477 16.9464 4.8296 20.2346 4.07814C20.2764 4.06869 20.3203 4.07622 20.3565 4.09907C20.3928 4.12192 20.4185 4.15823 20.428 4.20002L25.1479 24.8801C25.1559 24.9155 25.1518 24.9526 25.1362 24.9854C25.1206 25.0182 25.0945 25.0448 25.062 25.061C25.0394 25.0714 25.0149 25.0768 24.9901 25.077ZM11.6237 8.65314L24.6827 24.2953L20.1487 4.42931C17.0223 5.16925 14.1064 6.61398 11.6237 8.65314Z" fill="#2C2C2C"/>
<path d="M6.72803 28.391C6.69028 28.391 6.65373 28.3777 6.62476 28.3535C6.59578 28.3293 6.5762 28.2957 6.56944 28.2586C5.86124 24.3976 6.4128 20.3254 8.12295 16.7918C8.14159 16.7532 8.17476 16.7236 8.21518 16.7095C8.2556 16.6954 8.29998 16.6978 8.33858 16.7164L25.0605 24.7691C25.0914 24.7838 25.1169 24.8079 25.1332 24.838C25.1495 24.8682 25.1558 24.9027 25.1512 24.9366C25.1466 24.9705 25.1313 25.0021 25.1075 25.0268C25.0838 25.0515 25.0528 25.0679 25.019 25.0738L6.75733 28.3883C6.74771 28.3903 6.73787 28.3912 6.72803 28.391ZM8.34366 17.0785C6.74092 20.4683 6.21553 24.348 6.85889 28.0422L24.4722 24.8457L8.34366 17.0785Z" fill="#2C2C2C"/>
<path d="M16.2721 31.1168C16.246 31.1167 16.2203 31.1103 16.1971 31.0982C16.1739 31.0861 16.154 31.0686 16.1389 31.0473C15.8178 30.5835 15.5335 30.0953 15.2885 29.5871C15.2793 29.568 15.2739 29.5473 15.2727 29.5261C15.2715 29.5049 15.2745 29.4837 15.2815 29.4637C15.2885 29.4436 15.2994 29.4252 15.3135 29.4094C15.3277 29.3936 15.3448 29.3807 15.3639 29.3715L24.9194 24.7699C24.9562 24.7509 24.9988 24.7467 25.0386 24.7583C25.0783 24.7699 25.1121 24.7963 25.133 24.8321C25.1538 24.8678 25.1601 24.9103 25.1505 24.9505C25.1409 24.9908 25.1162 25.0259 25.0815 25.0484L16.3643 31.0883C16.3372 31.107 16.305 31.1169 16.2721 31.1168ZM15.651 29.5918C15.8481 29.9845 16.0695 30.3645 16.3139 30.7297L23.2108 25.9516L15.651 29.5918Z" fill="#2C2C2C"/>
<path d="M24.9961 38.3328C23.9883 38.3328 22.9785 38.2207 22.0039 37.998C21.9622 37.9883 21.9259 37.9625 21.9032 37.9262C21.8804 37.8899 21.873 37.8461 21.8824 37.8043L24.8324 24.8793C24.8496 24.8043 24.9195 24.741 24.9945 24.7539C25.0319 24.7548 25.0678 24.7687 25.096 24.7933C25.1243 24.8178 25.1431 24.8514 25.1492 24.8883L27.3699 37.9586C27.3771 38.0008 27.3671 38.0442 27.3423 38.0791C27.3175 38.1141 27.2798 38.1377 27.2375 38.1449C26.497 38.2704 25.7472 38.3333 24.9961 38.3328ZM22.2336 37.7179C23.7961 38.0539 25.4445 38.1008 27.0242 37.8523L24.9668 25.7433L22.2336 37.7179Z" fill="#2C2C2C"/>
<path d="M38.2156 41.6609C38.1912 41.661 38.1672 41.6555 38.1453 41.645C38.1234 41.6344 38.1041 41.619 38.089 41.6L24.8636 25.016C24.8386 24.9852 24.8259 24.9462 24.8278 24.9065C24.8298 24.8668 24.8463 24.8293 24.8742 24.8011C24.9021 24.7728 24.9395 24.7558 24.9791 24.7534C25.0187 24.751 25.0579 24.7633 25.089 24.7879L41.8206 37.8265C41.8545 37.8529 41.8764 37.8916 41.8817 37.9342C41.887 37.9768 41.8751 38.0197 41.8488 38.0535C40.8157 39.3792 39.6297 40.5784 38.3156 41.6262C38.2872 41.6488 38.2519 41.661 38.2156 41.6609ZM25.9675 25.882L38.241 41.2723C39.4429 40.2982 40.5339 39.1948 41.4945 37.982L25.9675 25.882Z" fill="#2C2C2C"/>
<path d="M69.7694 17.812C71.1134 17.812 72.1614 18.204 72.9134 18.988C73.6734 19.772 74.0534 21 74.0534 22.672V31H72.5654V22.744C72.5654 21.472 72.2974 20.556 71.7614 19.996C71.2334 19.428 70.4854 19.144 69.5174 19.144C68.8214 19.144 68.1294 19.296 67.4414 19.6C66.7534 19.896 66.1574 20.368 65.6534 21.016C65.7574 21.488 65.8094 22.036 65.8094 22.66V31H64.3454V22.744C64.3454 21.464 64.0854 20.544 63.5654 19.984C63.0534 19.424 62.3214 19.144 61.3694 19.144C60.6494 19.144 59.9494 19.308 59.2694 19.636C58.5894 19.956 57.9934 20.444 57.4814 21.1V31H55.9934V18.004H57.2534L57.3614 19.552H57.4694C58.0134 18.984 58.6454 18.552 59.3654 18.256C60.0934 17.96 60.8614 17.812 61.6694 17.812C63.3974 17.812 64.5854 18.464 65.2334 19.768C65.9054 19.088 66.6334 18.592 67.4174 18.28C68.2014 17.968 68.9854 17.812 69.7694 17.812ZM82.4705 17.812C83.6465 17.812 84.6185 17.956 85.3865 18.244C86.1545 18.532 86.7345 19.012 87.1265 19.684C87.5265 20.356 87.7265 21.268 87.7265 22.42V31H86.4545L86.3345 29.464H86.2265C85.7305 29.992 85.0865 30.416 84.2945 30.736C83.5105 31.048 82.6825 31.204 81.8105 31.204C80.9145 31.204 80.1465 31.064 79.5065 30.784C78.8665 30.496 78.3785 30.092 78.0425 29.572C77.7065 29.044 77.5385 28.424 77.5385 27.712C77.5385 26.608 77.9265 25.756 78.7025 25.156C79.4865 24.556 80.7505 24.16 82.4945 23.968L86.2505 23.536V22.372C86.2505 21.508 86.1025 20.836 85.8065 20.356C85.5185 19.868 85.0945 19.528 84.5345 19.336C83.9745 19.144 83.2465 19.048 82.3505 19.048C81.7265 19.048 81.0705 19.1 80.3825 19.204C79.6945 19.308 79.0265 19.476 78.3785 19.708V18.46C78.9625 18.252 79.6145 18.092 80.3345 17.98C81.0625 17.868 81.7745 17.812 82.4705 17.812ZM82.0745 30.028C82.8585 30.028 83.6065 29.88 84.3185 29.584C85.0385 29.28 85.6825 28.832 86.2505 28.24V24.616L82.5545 25.048C81.3065 25.192 80.4145 25.468 79.8785 25.876C79.3505 26.284 79.0865 26.86 79.0865 27.604C79.0865 28.38 79.3305 28.98 79.8185 29.404C80.3145 29.82 81.0665 30.028 82.0745 30.028ZM97.574 29.92C97.878 29.92 98.178 29.904 98.474 29.872C98.77 29.832 99.114 29.768 99.506 29.68V30.964C99.098 31.06 98.722 31.128 98.378 31.168C98.042 31.208 97.682 31.228 97.298 31.228C95.826 31.228 94.698 30.86 93.914 30.124C93.13 29.38 92.738 28.256 92.738 26.752V19.276H89.966V18.004H92.738L92.978 13.24H94.226V18.004H99.254V19.276H94.226V26.488C94.226 27.696 94.506 28.572 95.066 29.116C95.626 29.652 96.462 29.92 97.574 29.92ZM101.908 18.004H103.18L103.3 19.564H103.396C103.908 19.012 104.532 18.584 105.268 18.28C106.004 17.968 106.804 17.812 107.668 17.812C108.796 17.812 109.792 18.036 110.656 18.484C111.52 18.924 112.2 19.624 112.696 20.584C113.192 21.536 113.44 22.76 113.44 24.256C113.44 26.568 112.84 28.308 111.64 29.476C110.448 30.644 108.68 31.228 106.336 31.228C105.48 31.228 104.5 31.14 103.396 30.964V36.28H101.908V18.004ZM106.324 29.968C108.212 29.968 109.616 29.516 110.536 28.612C111.456 27.7 111.916 26.292 111.916 24.388C111.916 20.868 110.412 19.108 107.404 19.108C106.62 19.108 105.88 19.264 105.184 19.576C104.496 19.88 103.9 20.364 103.396 21.028V29.608C103.812 29.72 104.276 29.808 104.788 29.872C105.3 29.936 105.812 29.968 106.324 29.968ZM117.072 31V11.608H118.56V31H117.072ZM128.198 31.228C126.326 31.228 124.854 30.672 123.782 29.56C122.718 28.448 122.186 26.764 122.186 24.508C122.186 23.012 122.43 21.768 122.918 20.776C123.414 19.776 124.11 19.032 125.006 18.544C125.91 18.056 126.974 17.812 128.198 17.812C130.094 17.812 131.57 18.364 132.626 19.468C133.69 20.564 134.222 22.244 134.222 24.508C134.222 25.996 133.97 27.244 133.466 28.252C132.97 29.252 132.27 30 131.366 30.496C130.47 30.984 129.414 31.228 128.198 31.228ZM128.198 29.956C131.198 29.956 132.698 28.144 132.698 24.52C132.698 22.624 132.306 21.244 131.522 20.38C130.746 19.516 129.638 19.084 128.198 19.084C125.206 19.084 123.71 20.884 123.71 24.484C123.71 28.132 125.206 29.956 128.198 29.956ZM143.09 29.92C143.394 29.92 143.694 29.904 143.99 29.872C144.286 29.832 144.63 29.768 145.022 29.68V30.964C144.614 31.06 144.238 31.128 143.894 31.168C143.558 31.208 143.198 31.228 142.814 31.228C141.342 31.228 140.214 30.86 139.43 30.124C138.646 29.38 138.254 28.256 138.254 26.752V19.276H135.482V18.004H138.254L138.494 13.24H139.742V18.004H144.77V19.276H139.742V26.488C139.742 27.696 140.022 28.572 140.582 29.116C141.142 29.652 141.978 29.92 143.09 29.92ZM147.447 31V11.608H148.935V31H147.447ZM153.353 31V18.004H154.841V31H153.353ZM154.097 14.944C153.753 14.944 153.481 14.856 153.281 14.68C153.089 14.504 152.993 14.26 152.993 13.948C152.993 13.628 153.089 13.38 153.281 13.204C153.481 13.02 153.753 12.928 154.097 12.928C154.441 12.928 154.709 13.02 154.901 13.204C155.101 13.38 155.201 13.628 155.201 13.948C155.201 14.26 155.101 14.504 154.901 14.68C154.709 14.856 154.441 14.944 154.097 14.944ZM163.711 31.228C162.167 31.228 160.683 31.02 159.259 30.604V11.608H160.747V19.48H160.843C161.363 18.952 161.991 18.544 162.727 18.256C163.463 17.96 164.275 17.812 165.163 17.812C166.259 17.812 167.227 18.036 168.067 18.484C168.915 18.924 169.579 19.624 170.059 20.584C170.547 21.544 170.791 22.764 170.791 24.244C170.791 26.564 170.195 28.308 169.003 29.476C167.819 30.644 166.055 31.228 163.711 31.228ZM163.855 29.968C165.663 29.968 167.015 29.512 167.911 28.6C168.815 27.688 169.267 26.284 169.267 24.388C169.267 22.532 168.871 21.188 168.079 20.356C167.287 19.524 166.207 19.108 164.839 19.108C164.039 19.108 163.283 19.252 162.571 19.54C161.867 19.828 161.259 20.276 160.747 20.884V29.548C161.683 29.828 162.719 29.968 163.855 29.968Z" fill="white"/>
</svg>
