<svg width="211" height="38" viewBox="0 0 211 38" fill="none" xmlns="http://www.w3.org/2000/svg">
<path d="M0.229403 37V2.09091H14.0021C16.6499 2.09091 18.9055 2.59659 20.7692 3.60795C22.6328 4.60795 24.0533 6 25.0305 7.78409C26.0192 9.55682 26.5135 11.6023 26.5135 13.9205C26.5135 16.2386 26.0135 18.2841 25.0135 20.0568C24.0135 21.8295 22.5646 23.2102 20.6669 24.1989C18.7805 25.1875 16.4964 25.6818 13.8146 25.6818H5.03622V19.767H12.6214C14.0419 19.767 15.2124 19.5227 16.1328 19.0341C17.0646 18.5341 17.7578 17.8466 18.2124 16.9716C18.6783 16.0852 18.9112 15.0682 18.9112 13.9205C18.9112 12.7614 18.6783 11.75 18.2124 10.8864C17.7578 10.0114 17.0646 9.33523 16.1328 8.85795C15.201 8.36932 14.0192 8.125 12.5874 8.125H7.61009V37H0.229403ZM42.5788 37.5114C39.9311 37.5114 37.6413 36.9489 35.7095 35.8239C33.7891 34.6875 32.3061 33.108 31.2607 31.0852C30.2152 29.0511 29.6925 26.6932 29.6925 24.0114C29.6925 21.3068 30.2152 18.9432 31.2607 16.9205C32.3061 14.8864 33.7891 13.3068 35.7095 12.1818C37.6413 11.0455 39.9311 10.4773 42.5788 10.4773C45.2266 10.4773 47.5107 11.0455 49.4311 12.1818C51.3629 13.3068 52.8516 14.8864 53.897 16.9205C54.9425 18.9432 55.4652 21.3068 55.4652 24.0114C55.4652 26.6932 54.9425 29.0511 53.897 31.0852C52.8516 33.108 51.3629 34.6875 49.4311 35.8239C47.5107 36.9489 45.2266 37.5114 42.5788 37.5114ZM42.6129 31.8864C43.8175 31.8864 44.8232 31.5455 45.63 30.8636C46.4368 30.1705 47.0447 29.2273 47.4538 28.0341C47.8743 26.8409 48.0845 25.483 48.0845 23.9602C48.0845 22.4375 47.8743 21.0795 47.4538 19.8864C47.0447 18.6932 46.4368 17.75 45.63 17.0568C44.8232 16.3636 43.8175 16.017 42.6129 16.017C41.397 16.017 40.3743 16.3636 39.5447 17.0568C38.7266 17.75 38.1072 18.6932 37.6868 19.8864C37.2777 21.0795 37.0732 22.4375 37.0732 23.9602C37.0732 25.483 37.2777 26.8409 37.6868 28.0341C38.1072 29.2273 38.7266 30.1705 39.5447 30.8636C40.3743 31.5455 41.397 31.8864 42.6129 31.8864ZM60.1868 37V10.8182H67.2266V15.3864H67.4993C67.9766 13.7614 68.7777 12.5341 69.9027 11.7045C71.0277 10.8636 72.3232 10.4432 73.7891 10.4432C74.1527 10.4432 74.5447 10.4659 74.9652 10.5114C75.3857 10.5568 75.755 10.6193 76.0732 10.6989V17.142C75.7322 17.0398 75.2607 16.9489 74.6584 16.8693C74.0561 16.7898 73.505 16.75 73.005 16.75C71.9368 16.75 70.9822 16.983 70.1413 17.4489C69.3118 17.9034 68.6527 18.5398 68.1641 19.358C67.6868 20.1761 67.4482 21.1193 67.4482 22.1875V37H60.1868ZM95.0661 10.8182V16.2727H79.299V10.8182H95.0661ZM82.8786 4.54545H90.1399V28.9545C90.1399 29.625 90.2422 30.1477 90.4467 30.5227C90.6513 30.8864 90.9354 31.142 91.299 31.2898C91.674 31.4375 92.1058 31.5114 92.5945 31.5114C92.9354 31.5114 93.2763 31.483 93.6172 31.4261C93.9581 31.358 94.2195 31.3068 94.4013 31.2727L95.5433 36.6761C95.1797 36.7898 94.6683 36.9205 94.0092 37.0682C93.3501 37.2273 92.549 37.3239 91.6058 37.358C89.8558 37.4261 88.3217 37.1932 87.0036 36.6591C85.6967 36.125 84.6797 35.2955 83.9524 34.1705C83.2251 33.0455 82.8672 31.625 82.8786 29.9091V4.54545ZM113.876 10.8182V16.2727H97.7166V10.8182H113.876ZM101.415 37V8.92614C101.415 7.02841 101.785 5.45454 102.523 4.20454C103.273 2.95454 104.296 2.01704 105.592 1.39204C106.887 0.767043 108.359 0.454543 110.006 0.454543C111.12 0.454543 112.137 0.539771 113.058 0.710227C113.989 0.880681 114.683 1.03409 115.137 1.17045L113.842 6.625C113.558 6.53409 113.205 6.44886 112.785 6.36932C112.376 6.28977 111.955 6.25 111.523 6.25C110.455 6.25 109.711 6.5 109.29 7C108.87 7.48864 108.66 8.17614 108.66 9.0625V37H101.415ZM129.204 37.5114C126.556 37.5114 124.266 36.9489 122.335 35.8239C120.414 34.6875 118.931 33.108 117.886 31.0852C116.84 29.0511 116.317 26.6932 116.317 24.0114C116.317 21.3068 116.84 18.9432 117.886 16.9205C118.931 14.8864 120.414 13.3068 122.335 12.1818C124.266 11.0455 126.556 10.4773 129.204 10.4773C131.852 10.4773 134.136 11.0455 136.056 12.1818C137.988 13.3068 139.477 14.8864 140.522 16.9205C141.567 18.9432 142.09 21.3068 142.09 24.0114C142.09 26.6932 141.567 29.0511 140.522 31.0852C139.477 33.108 137.988 34.6875 136.056 35.8239C134.136 36.9489 131.852 37.5114 129.204 37.5114ZM129.238 31.8864C130.442 31.8864 131.448 31.5455 132.255 30.8636C133.062 30.1705 133.67 29.2273 134.079 28.0341C134.499 26.8409 134.71 25.483 134.71 23.9602C134.71 22.4375 134.499 21.0795 134.079 19.8864C133.67 18.6932 133.062 17.75 132.255 17.0568C131.448 16.3636 130.442 16.017 129.238 16.017C128.022 16.017 126.999 16.3636 126.17 17.0568C125.352 17.75 124.732 18.6932 124.312 19.8864C123.903 21.0795 123.698 22.4375 123.698 23.9602C123.698 25.483 123.903 26.8409 124.312 28.0341C124.732 29.2273 125.352 30.1705 126.17 30.8636C126.999 31.5455 128.022 31.8864 129.238 31.8864ZM154.073 2.09091V37H146.812V2.09091H154.073ZM159.89 37V10.8182H167.151V37H159.89ZM163.538 7.44318C162.458 7.44318 161.532 7.08523 160.759 6.36932C159.998 5.64204 159.617 4.77273 159.617 3.76136C159.617 2.76136 159.998 1.90341 160.759 1.1875C161.532 0.460226 162.458 0.0965891 163.538 0.0965891C164.617 0.0965891 165.538 0.460226 166.299 1.1875C167.072 1.90341 167.458 2.76136 167.458 3.76136C167.458 4.77273 167.072 5.64204 166.299 6.36932C165.538 7.08523 164.617 7.44318 163.538 7.44318ZM184.798 37.5114C182.15 37.5114 179.86 36.9489 177.928 35.8239C176.008 34.6875 174.525 33.108 173.479 31.0852C172.434 29.0511 171.911 26.6932 171.911 24.0114C171.911 21.3068 172.434 18.9432 173.479 16.9205C174.525 14.8864 176.008 13.3068 177.928 12.1818C179.86 11.0455 182.15 10.4773 184.798 10.4773C187.445 10.4773 189.729 11.0455 191.65 12.1818C193.582 13.3068 195.07 14.8864 196.116 16.9205C197.161 18.9432 197.684 21.3068 197.684 24.0114C197.684 26.6932 197.161 29.0511 196.116 31.0852C195.07 33.108 193.582 34.6875 191.65 35.8239C189.729 36.9489 187.445 37.5114 184.798 37.5114ZM184.832 31.8864C186.036 31.8864 187.042 31.5455 187.849 30.8636C188.656 30.1705 189.263 29.2273 189.673 28.0341C190.093 26.8409 190.303 25.483 190.303 23.9602C190.303 22.4375 190.093 21.0795 189.673 19.8864C189.263 18.6932 188.656 17.75 187.849 17.0568C187.042 16.3636 186.036 16.017 184.832 16.017C183.616 16.017 182.593 16.3636 181.763 17.0568C180.945 17.75 180.326 18.6932 179.906 19.8864C179.496 21.0795 179.292 22.4375 179.292 23.9602C179.292 25.483 179.496 26.8409 179.906 28.0341C180.326 29.2273 180.945 30.1705 181.763 30.8636C182.593 31.5455 183.616 31.8864 184.832 31.8864ZM206.65 37.4432C205.525 37.4432 204.559 37.0455 203.752 36.25C202.957 35.4432 202.559 34.4773 202.559 33.3523C202.559 32.2386 202.957 31.2841 203.752 30.4886C204.559 29.6932 205.525 29.2955 206.65 29.2955C207.741 29.2955 208.695 29.6932 209.513 30.4886C210.332 31.2841 210.741 32.2386 210.741 33.3523C210.741 34.1023 210.548 34.7898 210.161 35.4148C209.786 36.0284 209.292 36.5227 208.678 36.8977C208.065 37.2614 207.388 37.4432 206.65 37.4432Z" fill="white"/>
</svg>
