<svg width="120" height="60" viewBox="0 0 120 60" fill="none" xmlns="http://www.w3.org/2000/svg">
<path d="M8.79596 40.5424C7.68277 40.5424 6.7793 39.6374 6.7793 38.5214V32.8291C6.7793 31.713 7.68421 30.8081 8.79596 30.8081C9.3311 30.81 9.84375 31.0236 10.2219 31.4023C10.6 31.781 10.8129 32.2939 10.8141 32.8291V38.5228C10.8141 39.6389 9.90914 40.5424 8.79596 40.5424ZM15.2883 42.7256C14.1737 42.7256 13.2717 41.8207 13.2717 40.7047V30.6501C13.2717 29.5326 14.1737 28.6291 15.2883 28.6291C16.403 28.6291 17.3064 29.534 17.3064 30.6501V40.7047C17.3064 41.8222 16.4015 42.7256 15.2883 42.7256ZM21.7807 44.8601C20.6661 44.8601 19.7641 43.9552 19.7641 42.8391V28.5042C19.7641 27.3867 20.669 26.4832 21.7807 26.4832C22.8925 26.4832 23.7974 27.3881 23.7974 28.5042V42.8362C23.7974 43.9537 22.8953 44.8572 21.7807 44.8572V44.8601ZM38.8017 21.4473L10.646 13.0072C9.26421 12.5763 8.01745 13.4381 8.01745 14.7782V28.8647C8.27426 28.8133 8.5355 28.7873 8.79739 28.7871C9.05977 28.7873 9.32148 28.8133 9.57878 28.8647V14.7883C9.57878 14.6935 9.57878 14.4723 9.92351 14.4723C10.0172 14.473 10.1102 14.488 10.1993 14.5168L38.3564 22.9569C38.9683 23.1408 39.4222 23.7641 39.4222 24.1994V42.2545C39.4222 42.3579 39.4222 42.5676 39.0775 42.5676C38.9842 42.5675 38.8916 42.5525 38.8031 42.5231L32.3079 40.5797V42.21L38.3406 44.0241C38.5749 44.0954 38.8182 44.1326 39.0631 44.1347C39.3144 44.1461 39.5653 44.1055 39.8001 44.0153C40.0349 43.9251 40.2485 43.7873 40.4275 43.6106C40.6065 43.4339 40.747 43.2221 40.8402 42.9885C40.9334 42.7548 40.9773 42.5045 40.9692 42.2531V24.1821C40.9692 23.0115 40.0111 21.8078 38.7859 21.4415L38.8017 21.4473ZM28.2731 47.1008C27.1585 47.1008 26.2564 46.1959 26.2564 45.0798V26.2677C26.2564 25.1517 27.1614 24.2453 28.2731 24.2453C29.3849 24.2453 30.2898 25.1502 30.2898 26.2677V45.0956C30.2898 46.2131 29.3877 47.1166 28.2731 47.1166V47.1008Z" fill="white"/>
<path d="M50.3429 31.423V36.15H48.8779V23.642H52.3149C53.6519 23.642 54.6879 23.968 55.4149 24.619C56.1419 25.27 56.5179 26.189 56.5179 27.375C56.5179 28.561 56.1099 29.532 55.2919 30.288C54.4739 31.044 53.3719 31.422 51.9919 31.422H50.3439L50.3429 31.423ZM50.3429 24.968V30.096H51.8779C52.8899 30.096 53.6619 29.866 54.1929 29.403C54.7239 28.94 54.9909 28.288 54.9909 27.445C54.9909 25.795 54.0149 24.968 52.0609 24.968H50.3429ZM61.9999 36.36C60.6799 36.36 59.6259 35.942 58.8379 35.108C58.0499 34.274 57.6559 33.168 57.6559 31.79C57.6559 30.29 58.0559 29.117 58.8859 28.275C59.7159 27.433 60.8039 27 62.1999 27C63.5319 27 64.5699 27.4 65.3179 28.23C66.0659 29.06 66.4379 30.187 66.4379 31.63C66.4379 33.056 66.0349 34.196 65.2299 35.054C64.4249 35.912 63.3449 36.34 61.9999 36.34V36.36ZM62.1039 28.214C61.1839 28.214 60.4589 28.527 59.9239 29.152C59.3889 29.777 59.1219 30.639 59.1219 31.738C59.1219 32.796 59.3919 33.631 59.9219 34.241C60.4519 34.851 61.1869 35.157 62.0939 35.157C63.0189 35.157 63.7289 34.857 64.2259 34.257C64.7229 33.657 64.9719 32.807 64.9719 31.702C64.9719 30.586 64.7219 29.725 64.2259 29.12C63.7299 28.515 63.0189 28.213 62.0939 28.213L62.1039 28.214ZM79.7369 27.218L77.0589 36.148H75.5769L73.7369 29.755C73.6669 29.511 73.6209 29.235 73.5969 28.925H73.5619C73.5289 29.1973 73.4675 29.4654 73.3789 29.725L71.3819 36.125H69.9519L67.2479 27.195H68.7479L70.5979 33.912C70.6559 34.115 70.6979 34.382 70.7199 34.714H70.7899C70.8119 34.4357 70.8646 34.1607 70.9469 33.894L73.0049 27.194H74.3129L76.1629 33.927C76.2209 34.142 76.2649 34.41 76.2929 34.73H76.3629C76.3749 34.503 76.4229 34.236 76.5109 33.927L78.3249 27.194H79.7379L79.7369 27.218ZM88.3169 32.042H81.9999C82.0229 33.036 82.2999 33.804 82.8019 34.344C83.3039 34.884 84.0169 35.144 84.9019 35.144C85.9079 35.144 86.8319 34.814 87.6759 34.149V35.492C86.8909 36.062 85.8529 36.347 84.5619 36.347C83.2999 36.347 82.3089 35.941 81.5879 35.13C80.8669 34.319 80.5059 33.18 80.5059 31.708C80.5059 30.308 80.8999 29.185 81.6879 28.31C82.4759 27.435 83.4539 26.998 84.6229 26.998C85.7919 26.998 86.6959 27.376 87.3359 28.131C87.9759 28.886 88.2959 29.937 88.2959 31.281V32.031L88.3169 32.042ZM86.8499 30.83C86.8439 30.005 86.6459 29.36 86.2529 28.903C85.8599 28.446 85.3149 28.203 84.6179 28.203C84.2971 28.1976 83.9786 28.259 83.6828 28.3835C83.387 28.508 83.1204 28.6928 82.8999 28.926C82.4299 29.409 82.1379 30.04 82.0269 30.819L86.8499 30.83ZM95.0499 28.666C94.7999 28.474 94.4499 28.378 93.9679 28.378C93.3679 28.378 92.8479 28.666 92.4379 29.241C92.0279 29.816 91.8229 30.601 91.8229 31.597V36.149H90.3929V27.219H91.8229V29.059H91.8579C92.0609 28.431 92.3729 27.942 92.7909 27.589C93.2089 27.236 93.6769 27.062 94.1959 27.062C94.5679 27.062 94.8519 27.102 95.0509 27.184L95.0499 28.666ZM101.688 36.15V23.642H105.248C106.33 23.642 107.188 23.907 107.821 24.436C108.454 24.965 108.771 25.654 108.771 26.503C108.771 27.203 108.579 27.828 108.195 28.353C107.811 28.878 107.283 29.248 106.608 29.47V29.504C107.451 29.604 108.125 29.921 108.631 30.459C109.137 30.997 109.389 31.696 109.389 32.556C109.389 33.626 109.006 34.492 108.239 35.156C107.472 35.82 106.503 36.15 105.334 36.15H101.688ZM103.154 24.97V29H104.654C105.456 29 106.088 28.806 106.547 28.42C107.006 28.034 107.247 27.488 107.247 26.784C107.247 25.569 106.447 24.961 104.847 24.961L103.154 24.97ZM103.154 30.326V34.826H105.154C106.014 34.826 106.682 34.622 107.156 34.226C107.63 33.83 107.856 33.262 107.856 32.552C107.856 31.075 106.85 30.336 104.838 30.336L103.154 30.326ZM113.21 36.15H111.745V23.642H113.21V36.15Z" fill="white"/>
</svg>
